<?xml version="1.0" encoding="utf-8" standalone="no"?>
<!DOCTYPE svg PUBLIC "-//W3C//DTD SVG 1.1//EN"
  "http://www.w3.org/Graphics/SVG/1.1/DTD/svg11.dtd">
<svg xmlns:xlink="http://www.w3.org/1999/xlink" width="345.6pt" height="259.2pt" viewBox="0 0 345.6 259.2" xmlns="http://www.w3.org/2000/svg" version="1.1">
 <metadata>
  <rdf:RDF xmlns:dc="http://purl.org/dc/elements/1.1/" xmlns:cc="http://creativecommons.org/ns#" xmlns:rdf="http://www.w3.org/1999/02/22-rdf-syntax-ns#">
   <cc:Work>
    <dc:type rdf:resource="http://purl.org/dc/dcmitype/StillImage"/>
    <dc:date>2023-01-28T13:18:10.204056</dc:date>
    <dc:format>image/svg+xml</dc:format>
    <dc:creator>
     <cc:Agent>
      <dc:title>Matplotlib v3.5.2, https://matplotlib.org/</dc:title>
     </cc:Agent>
    </dc:creator>
   </cc:Work>
  </rdf:RDF>
 </metadata>
 <defs>
  <style type="text/css">*{stroke-linejoin: round; stroke-linecap: butt}</style>
 </defs>
 <g id="figure_1">
  <g id="patch_1">
   <path d="M 0 259.2 
L 345.6 259.2 
L 345.6 0 
L 0 0 
z
" style="fill: #ffffff"/>
  </g>
  <g id="axes_1">
   <g id="patch_2">
    <path d="M 38.083053 227.015385 
L 342.59976 227.015385 
L 342.59976 6.472115 
L 38.083053 6.472115 
z
" style="fill: #ffffff"/>
   </g>
   <g id="matplotlib.axis_1">
    <g id="xtick_1">
     <g id="line2d_1">
      <path d="M 38.083053 227.015385 
L 38.083053 6.472115 
" clip-path="url(#pba8c9078e0)" style="fill: none; stroke: #b0b0b0; stroke-width: 0.25; stroke-linecap: square"/>
     </g>
     <g id="line2d_2">
      <defs>
       <path id="mc4a25c1e07" d="M 0 0 
L 0 3.5 
" style="stroke: #000000; stroke-width: 0.8"/>
      </defs>
      <g>
       <use xlink:href="#mc4a25c1e07" x="38.083053" y="227.015385" style="stroke: #000000; stroke-width: 0.8"/>
      </g>
     </g>
     <g id="text_1">
      <!-- 0.00 -->
      <g transform="translate(29.333053 240.959135)scale(0.1 -0.1)">
       <defs>
        <path id="TimesNewRomanPSMT-30" d="M 231 2094 
Q 231 2819 450 3342 
Q 669 3866 1031 4122 
Q 1313 4325 1613 4325 
Q 2100 4325 2488 3828 
Q 2972 3213 2972 2159 
Q 2972 1422 2759 906 
Q 2547 391 2217 158 
Q 1888 -75 1581 -75 
Q 975 -75 572 641 
Q 231 1244 231 2094 
z
M 844 2016 
Q 844 1141 1059 588 
Q 1238 122 1591 122 
Q 1759 122 1940 273 
Q 2122 425 2216 781 
Q 2359 1319 2359 2297 
Q 2359 3022 2209 3506 
Q 2097 3866 1919 4016 
Q 1791 4119 1609 4119 
Q 1397 4119 1231 3928 
Q 1006 3669 925 3112 
Q 844 2556 844 2016 
z
" transform="scale(0.015625)"/>
        <path id="TimesNewRomanPSMT-2e" d="M 800 606 
Q 947 606 1047 504 
Q 1147 403 1147 259 
Q 1147 116 1045 14 
Q 944 -88 800 -88 
Q 656 -88 554 14 
Q 453 116 453 259 
Q 453 406 554 506 
Q 656 606 800 606 
z
" transform="scale(0.015625)"/>
       </defs>
       <use xlink:href="#TimesNewRomanPSMT-30"/>
       <use xlink:href="#TimesNewRomanPSMT-2e" x="50"/>
       <use xlink:href="#TimesNewRomanPSMT-30" x="75"/>
       <use xlink:href="#TimesNewRomanPSMT-30" x="125"/>
      </g>
     </g>
    </g>
    <g id="xtick_2">
     <g id="line2d_3">
      <path d="M 74.335041 227.015385 
L 74.335041 6.472115 
" clip-path="url(#pba8c9078e0)" style="fill: none; stroke: #b0b0b0; stroke-width: 0.25; stroke-linecap: square"/>
     </g>
     <g id="line2d_4">
      <g>
       <use xlink:href="#mc4a25c1e07" x="74.335041" y="227.015385" style="stroke: #000000; stroke-width: 0.8"/>
      </g>
     </g>
     <g id="text_2">
      <!-- 0.25 -->
      <g transform="translate(65.585041 240.959135)scale(0.1 -0.1)">
       <defs>
        <path id="TimesNewRomanPSMT-32" d="M 2934 816 
L 2638 0 
L 138 0 
L 138 116 
Q 1241 1122 1691 1759 
Q 2141 2397 2141 2925 
Q 2141 3328 1894 3587 
Q 1647 3847 1303 3847 
Q 991 3847 742 3664 
Q 494 3481 375 3128 
L 259 3128 
Q 338 3706 661 4015 
Q 984 4325 1469 4325 
Q 1984 4325 2329 3994 
Q 2675 3663 2675 3213 
Q 2675 2891 2525 2569 
Q 2294 2063 1775 1497 
Q 997 647 803 472 
L 1909 472 
Q 2247 472 2383 497 
Q 2519 522 2628 598 
Q 2738 675 2819 816 
L 2934 816 
z
" transform="scale(0.015625)"/>
        <path id="TimesNewRomanPSMT-35" d="M 2778 4238 
L 2534 3706 
L 1259 3706 
L 981 3138 
Q 1809 3016 2294 2522 
Q 2709 2097 2709 1522 
Q 2709 1188 2573 903 
Q 2438 619 2231 419 
Q 2025 219 1772 97 
Q 1413 -75 1034 -75 
Q 653 -75 479 54 
Q 306 184 306 341 
Q 306 428 378 495 
Q 450 563 559 563 
Q 641 563 702 538 
Q 763 513 909 409 
Q 1144 247 1384 247 
Q 1750 247 2026 523 
Q 2303 800 2303 1197 
Q 2303 1581 2056 1914 
Q 1809 2247 1375 2428 
Q 1034 2569 447 2591 
L 1259 4238 
L 2778 4238 
z
" transform="scale(0.015625)"/>
       </defs>
       <use xlink:href="#TimesNewRomanPSMT-30"/>
       <use xlink:href="#TimesNewRomanPSMT-2e" x="50"/>
       <use xlink:href="#TimesNewRomanPSMT-32" x="75"/>
       <use xlink:href="#TimesNewRomanPSMT-35" x="125"/>
      </g>
     </g>
    </g>
    <g id="xtick_3">
     <g id="line2d_5">
      <path d="M 110.58703 227.015385 
L 110.58703 6.472115 
" clip-path="url(#pba8c9078e0)" style="fill: none; stroke: #b0b0b0; stroke-width: 0.25; stroke-linecap: square"/>
     </g>
     <g id="line2d_6">
      <g>
       <use xlink:href="#mc4a25c1e07" x="110.58703" y="227.015385" style="stroke: #000000; stroke-width: 0.8"/>
      </g>
     </g>
     <g id="text_3">
      <!-- 0.50 -->
      <g transform="translate(101.83703 240.959135)scale(0.1 -0.1)">
       <use xlink:href="#TimesNewRomanPSMT-30"/>
       <use xlink:href="#TimesNewRomanPSMT-2e" x="50"/>
       <use xlink:href="#TimesNewRomanPSMT-35" x="75"/>
       <use xlink:href="#TimesNewRomanPSMT-30" x="125"/>
      </g>
     </g>
    </g>
    <g id="xtick_4">
     <g id="line2d_7">
      <path d="M 146.839019 227.015385 
L 146.839019 6.472115 
" clip-path="url(#pba8c9078e0)" style="fill: none; stroke: #b0b0b0; stroke-width: 0.25; stroke-linecap: square"/>
     </g>
     <g id="line2d_8">
      <g>
       <use xlink:href="#mc4a25c1e07" x="146.839019" y="227.015385" style="stroke: #000000; stroke-width: 0.8"/>
      </g>
     </g>
     <g id="text_4">
      <!-- 0.75 -->
      <g transform="translate(138.089019 240.959135)scale(0.1 -0.1)">
       <defs>
        <path id="TimesNewRomanPSMT-37" d="M 644 4238 
L 2916 4238 
L 2916 4119 
L 1503 -88 
L 1153 -88 
L 2419 3728 
L 1253 3728 
Q 900 3728 750 3644 
Q 488 3500 328 3200 
L 238 3234 
L 644 4238 
z
" transform="scale(0.015625)"/>
       </defs>
       <use xlink:href="#TimesNewRomanPSMT-30"/>
       <use xlink:href="#TimesNewRomanPSMT-2e" x="50"/>
       <use xlink:href="#TimesNewRomanPSMT-37" x="75"/>
       <use xlink:href="#TimesNewRomanPSMT-35" x="125"/>
      </g>
     </g>
    </g>
    <g id="xtick_5">
     <g id="line2d_9">
      <path d="M 183.091008 227.015385 
L 183.091008 6.472115 
" clip-path="url(#pba8c9078e0)" style="fill: none; stroke: #b0b0b0; stroke-width: 0.25; stroke-linecap: square"/>
     </g>
     <g id="line2d_10">
      <g>
       <use xlink:href="#mc4a25c1e07" x="183.091008" y="227.015385" style="stroke: #000000; stroke-width: 0.8"/>
      </g>
     </g>
     <g id="text_5">
      <!-- 1.00 -->
      <g transform="translate(174.341008 240.959135)scale(0.1 -0.1)">
       <defs>
        <path id="TimesNewRomanPSMT-31" d="M 750 3822 
L 1781 4325 
L 1884 4325 
L 1884 747 
Q 1884 391 1914 303 
Q 1944 216 2037 169 
Q 2131 122 2419 116 
L 2419 0 
L 825 0 
L 825 116 
Q 1125 122 1212 167 
Q 1300 213 1334 289 
Q 1369 366 1369 747 
L 1369 3034 
Q 1369 3497 1338 3628 
Q 1316 3728 1258 3775 
Q 1200 3822 1119 3822 
Q 1003 3822 797 3725 
L 750 3822 
z
" transform="scale(0.015625)"/>
       </defs>
       <use xlink:href="#TimesNewRomanPSMT-31"/>
       <use xlink:href="#TimesNewRomanPSMT-2e" x="50"/>
       <use xlink:href="#TimesNewRomanPSMT-30" x="75"/>
       <use xlink:href="#TimesNewRomanPSMT-30" x="125"/>
      </g>
     </g>
    </g>
    <g id="xtick_6">
     <g id="line2d_11">
      <path d="M 219.342997 227.015385 
L 219.342997 6.472115 
" clip-path="url(#pba8c9078e0)" style="fill: none; stroke: #b0b0b0; stroke-width: 0.25; stroke-linecap: square"/>
     </g>
     <g id="line2d_12">
      <g>
       <use xlink:href="#mc4a25c1e07" x="219.342997" y="227.015385" style="stroke: #000000; stroke-width: 0.8"/>
      </g>
     </g>
     <g id="text_6">
      <!-- 1.25 -->
      <g transform="translate(210.592997 240.959135)scale(0.1 -0.1)">
       <use xlink:href="#TimesNewRomanPSMT-31"/>
       <use xlink:href="#TimesNewRomanPSMT-2e" x="50"/>
       <use xlink:href="#TimesNewRomanPSMT-32" x="75"/>
       <use xlink:href="#TimesNewRomanPSMT-35" x="125"/>
      </g>
     </g>
    </g>
    <g id="xtick_7">
     <g id="line2d_13">
      <path d="M 255.594986 227.015385 
L 255.594986 6.472115 
" clip-path="url(#pba8c9078e0)" style="fill: none; stroke: #b0b0b0; stroke-width: 0.25; stroke-linecap: square"/>
     </g>
     <g id="line2d_14">
      <g>
       <use xlink:href="#mc4a25c1e07" x="255.594986" y="227.015385" style="stroke: #000000; stroke-width: 0.8"/>
      </g>
     </g>
     <g id="text_7">
      <!-- 1.50 -->
      <g transform="translate(246.844986 240.959135)scale(0.1 -0.1)">
       <use xlink:href="#TimesNewRomanPSMT-31"/>
       <use xlink:href="#TimesNewRomanPSMT-2e" x="50"/>
       <use xlink:href="#TimesNewRomanPSMT-35" x="75"/>
       <use xlink:href="#TimesNewRomanPSMT-30" x="125"/>
      </g>
     </g>
    </g>
    <g id="xtick_8">
     <g id="line2d_15">
      <path d="M 291.846975 227.015385 
L 291.846975 6.472115 
" clip-path="url(#pba8c9078e0)" style="fill: none; stroke: #b0b0b0; stroke-width: 0.25; stroke-linecap: square"/>
     </g>
     <g id="line2d_16">
      <g>
       <use xlink:href="#mc4a25c1e07" x="291.846975" y="227.015385" style="stroke: #000000; stroke-width: 0.8"/>
      </g>
     </g>
     <g id="text_8">
      <!-- 1.75 -->
      <g transform="translate(283.096975 240.959135)scale(0.1 -0.1)">
       <use xlink:href="#TimesNewRomanPSMT-31"/>
       <use xlink:href="#TimesNewRomanPSMT-2e" x="50"/>
       <use xlink:href="#TimesNewRomanPSMT-37" x="75"/>
       <use xlink:href="#TimesNewRomanPSMT-35" x="125"/>
      </g>
     </g>
    </g>
    <g id="xtick_9">
     <g id="line2d_17">
      <path d="M 328.098964 227.015385 
L 328.098964 6.472115 
" clip-path="url(#pba8c9078e0)" style="fill: none; stroke: #b0b0b0; stroke-width: 0.25; stroke-linecap: square"/>
     </g>
     <g id="line2d_18">
      <g>
       <use xlink:href="#mc4a25c1e07" x="328.098964" y="227.015385" style="stroke: #000000; stroke-width: 0.8"/>
      </g>
     </g>
     <g id="text_9">
      <!-- 2.00 -->
      <g transform="translate(319.348964 240.959135)scale(0.1 -0.1)">
       <use xlink:href="#TimesNewRomanPSMT-32"/>
       <use xlink:href="#TimesNewRomanPSMT-2e" x="50"/>
       <use xlink:href="#TimesNewRomanPSMT-30" x="75"/>
       <use xlink:href="#TimesNewRomanPSMT-30" x="125"/>
      </g>
     </g>
    </g>
    <g id="xtick_10">
     <g id="line2d_19">
      <defs>
       <path id="m6adaf54073" d="M 0 0 
L 0 1.5 
" style="stroke: #000000; stroke-width: 0.5"/>
      </defs>
      <g>
       <use xlink:href="#m6adaf54073" x="45.33345" y="227.015385" style="stroke: #000000; stroke-width: 0.5"/>
      </g>
     </g>
    </g>
    <g id="xtick_11">
     <g id="line2d_20">
      <g>
       <use xlink:href="#m6adaf54073" x="52.583848" y="227.015385" style="stroke: #000000; stroke-width: 0.5"/>
      </g>
     </g>
    </g>
    <g id="xtick_12">
     <g id="line2d_21">
      <g>
       <use xlink:href="#m6adaf54073" x="59.834246" y="227.015385" style="stroke: #000000; stroke-width: 0.5"/>
      </g>
     </g>
    </g>
    <g id="xtick_13">
     <g id="line2d_22">
      <g>
       <use xlink:href="#m6adaf54073" x="67.084644" y="227.015385" style="stroke: #000000; stroke-width: 0.5"/>
      </g>
     </g>
    </g>
    <g id="xtick_14">
     <g id="line2d_23">
      <g>
       <use xlink:href="#m6adaf54073" x="81.585439" y="227.015385" style="stroke: #000000; stroke-width: 0.5"/>
      </g>
     </g>
    </g>
    <g id="xtick_15">
     <g id="line2d_24">
      <g>
       <use xlink:href="#m6adaf54073" x="88.835837" y="227.015385" style="stroke: #000000; stroke-width: 0.5"/>
      </g>
     </g>
    </g>
    <g id="xtick_16">
     <g id="line2d_25">
      <g>
       <use xlink:href="#m6adaf54073" x="96.086235" y="227.015385" style="stroke: #000000; stroke-width: 0.5"/>
      </g>
     </g>
    </g>
    <g id="xtick_17">
     <g id="line2d_26">
      <g>
       <use xlink:href="#m6adaf54073" x="103.336633" y="227.015385" style="stroke: #000000; stroke-width: 0.5"/>
      </g>
     </g>
    </g>
    <g id="xtick_18">
     <g id="line2d_27">
      <g>
       <use xlink:href="#m6adaf54073" x="117.837428" y="227.015385" style="stroke: #000000; stroke-width: 0.5"/>
      </g>
     </g>
    </g>
    <g id="xtick_19">
     <g id="line2d_28">
      <g>
       <use xlink:href="#m6adaf54073" x="125.087826" y="227.015385" style="stroke: #000000; stroke-width: 0.5"/>
      </g>
     </g>
    </g>
    <g id="xtick_20">
     <g id="line2d_29">
      <g>
       <use xlink:href="#m6adaf54073" x="132.338224" y="227.015385" style="stroke: #000000; stroke-width: 0.5"/>
      </g>
     </g>
    </g>
    <g id="xtick_21">
     <g id="line2d_30">
      <g>
       <use xlink:href="#m6adaf54073" x="139.588622" y="227.015385" style="stroke: #000000; stroke-width: 0.5"/>
      </g>
     </g>
    </g>
    <g id="xtick_22">
     <g id="line2d_31">
      <g>
       <use xlink:href="#m6adaf54073" x="154.089417" y="227.015385" style="stroke: #000000; stroke-width: 0.5"/>
      </g>
     </g>
    </g>
    <g id="xtick_23">
     <g id="line2d_32">
      <g>
       <use xlink:href="#m6adaf54073" x="161.339815" y="227.015385" style="stroke: #000000; stroke-width: 0.5"/>
      </g>
     </g>
    </g>
    <g id="xtick_24">
     <g id="line2d_33">
      <g>
       <use xlink:href="#m6adaf54073" x="168.590213" y="227.015385" style="stroke: #000000; stroke-width: 0.5"/>
      </g>
     </g>
    </g>
    <g id="xtick_25">
     <g id="line2d_34">
      <g>
       <use xlink:href="#m6adaf54073" x="175.840611" y="227.015385" style="stroke: #000000; stroke-width: 0.5"/>
      </g>
     </g>
    </g>
    <g id="xtick_26">
     <g id="line2d_35">
      <g>
       <use xlink:href="#m6adaf54073" x="190.341406" y="227.015385" style="stroke: #000000; stroke-width: 0.5"/>
      </g>
     </g>
    </g>
    <g id="xtick_27">
     <g id="line2d_36">
      <g>
       <use xlink:href="#m6adaf54073" x="197.591804" y="227.015385" style="stroke: #000000; stroke-width: 0.5"/>
      </g>
     </g>
    </g>
    <g id="xtick_28">
     <g id="line2d_37">
      <g>
       <use xlink:href="#m6adaf54073" x="204.842202" y="227.015385" style="stroke: #000000; stroke-width: 0.5"/>
      </g>
     </g>
    </g>
    <g id="xtick_29">
     <g id="line2d_38">
      <g>
       <use xlink:href="#m6adaf54073" x="212.0926" y="227.015385" style="stroke: #000000; stroke-width: 0.5"/>
      </g>
     </g>
    </g>
    <g id="xtick_30">
     <g id="line2d_39">
      <g>
       <use xlink:href="#m6adaf54073" x="226.593395" y="227.015385" style="stroke: #000000; stroke-width: 0.5"/>
      </g>
     </g>
    </g>
    <g id="xtick_31">
     <g id="line2d_40">
      <g>
       <use xlink:href="#m6adaf54073" x="233.843793" y="227.015385" style="stroke: #000000; stroke-width: 0.5"/>
      </g>
     </g>
    </g>
    <g id="xtick_32">
     <g id="line2d_41">
      <g>
       <use xlink:href="#m6adaf54073" x="241.094191" y="227.015385" style="stroke: #000000; stroke-width: 0.5"/>
      </g>
     </g>
    </g>
    <g id="xtick_33">
     <g id="line2d_42">
      <g>
       <use xlink:href="#m6adaf54073" x="248.344589" y="227.015385" style="stroke: #000000; stroke-width: 0.5"/>
      </g>
     </g>
    </g>
    <g id="xtick_34">
     <g id="line2d_43">
      <g>
       <use xlink:href="#m6adaf54073" x="262.845384" y="227.015385" style="stroke: #000000; stroke-width: 0.5"/>
      </g>
     </g>
    </g>
    <g id="xtick_35">
     <g id="line2d_44">
      <g>
       <use xlink:href="#m6adaf54073" x="270.095782" y="227.015385" style="stroke: #000000; stroke-width: 0.5"/>
      </g>
     </g>
    </g>
    <g id="xtick_36">
     <g id="line2d_45">
      <g>
       <use xlink:href="#m6adaf54073" x="277.34618" y="227.015385" style="stroke: #000000; stroke-width: 0.5"/>
      </g>
     </g>
    </g>
    <g id="xtick_37">
     <g id="line2d_46">
      <g>
       <use xlink:href="#m6adaf54073" x="284.596578" y="227.015385" style="stroke: #000000; stroke-width: 0.5"/>
      </g>
     </g>
    </g>
    <g id="xtick_38">
     <g id="line2d_47">
      <g>
       <use xlink:href="#m6adaf54073" x="299.097373" y="227.015385" style="stroke: #000000; stroke-width: 0.5"/>
      </g>
     </g>
    </g>
    <g id="xtick_39">
     <g id="line2d_48">
      <g>
       <use xlink:href="#m6adaf54073" x="306.347771" y="227.015385" style="stroke: #000000; stroke-width: 0.5"/>
      </g>
     </g>
    </g>
    <g id="xtick_40">
     <g id="line2d_49">
      <g>
       <use xlink:href="#m6adaf54073" x="313.598169" y="227.015385" style="stroke: #000000; stroke-width: 0.5"/>
      </g>
     </g>
    </g>
    <g id="xtick_41">
     <g id="line2d_50">
      <g>
       <use xlink:href="#m6adaf54073" x="320.848567" y="227.015385" style="stroke: #000000; stroke-width: 0.5"/>
      </g>
     </g>
    </g>
    <g id="xtick_42">
     <g id="line2d_51">
      <g>
       <use xlink:href="#m6adaf54073" x="335.349362" y="227.015385" style="stroke: #000000; stroke-width: 0.5"/>
      </g>
     </g>
    </g>
    <g id="text_10">
     <!-- Parameter Normalized to Baseline Configuration -->
     <g transform="translate(92.314844 254.041947)scale(0.1 -0.1)">
      <defs>
       <path id="TimesNewRomanPSMT-50" d="M 1313 1984 
L 1313 750 
Q 1313 350 1400 253 
Q 1519 116 1759 116 
L 1922 116 
L 1922 0 
L 106 0 
L 106 116 
L 266 116 
Q 534 116 650 291 
Q 713 388 713 750 
L 713 3488 
Q 713 3888 628 3984 
Q 506 4122 266 4122 
L 106 4122 
L 106 4238 
L 1659 4238 
Q 2228 4238 2556 4120 
Q 2884 4003 3109 3725 
Q 3334 3447 3334 3066 
Q 3334 2547 2992 2222 
Q 2650 1897 2025 1897 
Q 1872 1897 1694 1919 
Q 1516 1941 1313 1984 
z
M 1313 2163 
Q 1478 2131 1606 2115 
Q 1734 2100 1825 2100 
Q 2150 2100 2386 2351 
Q 2622 2603 2622 3003 
Q 2622 3278 2509 3514 
Q 2397 3750 2190 3867 
Q 1984 3984 1722 3984 
Q 1563 3984 1313 3925 
L 1313 2163 
z
" transform="scale(0.015625)"/>
       <path id="TimesNewRomanPSMT-61" d="M 1822 413 
Q 1381 72 1269 19 
Q 1100 -59 909 -59 
Q 613 -59 420 144 
Q 228 347 228 678 
Q 228 888 322 1041 
Q 450 1253 767 1440 
Q 1084 1628 1822 1897 
L 1822 2009 
Q 1822 2438 1686 2597 
Q 1550 2756 1291 2756 
Q 1094 2756 978 2650 
Q 859 2544 859 2406 
L 866 2225 
Q 866 2081 792 2003 
Q 719 1925 600 1925 
Q 484 1925 411 2006 
Q 338 2088 338 2228 
Q 338 2497 613 2722 
Q 888 2947 1384 2947 
Q 1766 2947 2009 2819 
Q 2194 2722 2281 2516 
Q 2338 2381 2338 1966 
L 2338 994 
Q 2338 584 2353 492 
Q 2369 400 2405 369 
Q 2441 338 2488 338 
Q 2538 338 2575 359 
Q 2641 400 2828 588 
L 2828 413 
Q 2478 -56 2159 -56 
Q 2006 -56 1915 50 
Q 1825 156 1822 413 
z
M 1822 616 
L 1822 1706 
Q 1350 1519 1213 1441 
Q 966 1303 859 1153 
Q 753 1003 753 825 
Q 753 600 887 451 
Q 1022 303 1197 303 
Q 1434 303 1822 616 
z
" transform="scale(0.015625)"/>
       <path id="TimesNewRomanPSMT-72" d="M 1038 2947 
L 1038 2303 
Q 1397 2947 1775 2947 
Q 1947 2947 2059 2842 
Q 2172 2738 2172 2600 
Q 2172 2478 2090 2393 
Q 2009 2309 1897 2309 
Q 1788 2309 1652 2417 
Q 1516 2525 1450 2525 
Q 1394 2525 1328 2463 
Q 1188 2334 1038 2041 
L 1038 669 
Q 1038 431 1097 309 
Q 1138 225 1241 169 
Q 1344 113 1538 113 
L 1538 0 
L 72 0 
L 72 113 
Q 291 113 397 181 
Q 475 231 506 341 
Q 522 394 522 644 
L 522 1753 
Q 522 2253 501 2348 
Q 481 2444 426 2487 
Q 372 2531 291 2531 
Q 194 2531 72 2484 
L 41 2597 
L 906 2947 
L 1038 2947 
z
" transform="scale(0.015625)"/>
       <path id="TimesNewRomanPSMT-6d" d="M 1050 2338 
Q 1363 2650 1419 2697 
Q 1559 2816 1721 2881 
Q 1884 2947 2044 2947 
Q 2313 2947 2506 2790 
Q 2700 2634 2766 2338 
Q 3088 2713 3309 2830 
Q 3531 2947 3766 2947 
Q 3994 2947 4170 2830 
Q 4347 2713 4450 2447 
Q 4519 2266 4519 1878 
L 4519 647 
Q 4519 378 4559 278 
Q 4591 209 4675 161 
Q 4759 113 4950 113 
L 4950 0 
L 3538 0 
L 3538 113 
L 3597 113 
Q 3781 113 3884 184 
Q 3956 234 3988 344 
Q 4000 397 4000 647 
L 4000 1878 
Q 4000 2228 3916 2372 
Q 3794 2572 3525 2572 
Q 3359 2572 3192 2489 
Q 3025 2406 2788 2181 
L 2781 2147 
L 2788 2013 
L 2788 647 
Q 2788 353 2820 281 
Q 2853 209 2943 161 
Q 3034 113 3253 113 
L 3253 0 
L 1806 0 
L 1806 113 
Q 2044 113 2133 169 
Q 2222 225 2256 338 
Q 2272 391 2272 647 
L 2272 1878 
Q 2272 2228 2169 2381 
Q 2031 2581 1784 2581 
Q 1616 2581 1450 2491 
Q 1191 2353 1050 2181 
L 1050 647 
Q 1050 366 1089 281 
Q 1128 197 1204 155 
Q 1281 113 1516 113 
L 1516 0 
L 100 0 
L 100 113 
Q 297 113 375 155 
Q 453 197 493 289 
Q 534 381 534 647 
L 534 1741 
Q 534 2213 506 2350 
Q 484 2453 437 2492 
Q 391 2531 309 2531 
Q 222 2531 100 2484 
L 53 2597 
L 916 2947 
L 1050 2947 
L 1050 2338 
z
" transform="scale(0.015625)"/>
       <path id="TimesNewRomanPSMT-65" d="M 681 1784 
Q 678 1147 991 784 
Q 1303 422 1725 422 
Q 2006 422 2214 576 
Q 2422 731 2563 1106 
L 2659 1044 
Q 2594 616 2278 264 
Q 1963 -88 1488 -88 
Q 972 -88 605 314 
Q 238 716 238 1394 
Q 238 2128 614 2539 
Q 991 2950 1559 2950 
Q 2041 2950 2350 2633 
Q 2659 2316 2659 1784 
L 681 1784 
z
M 681 1966 
L 2006 1966 
Q 1991 2241 1941 2353 
Q 1863 2528 1708 2628 
Q 1553 2728 1384 2728 
Q 1125 2728 920 2526 
Q 716 2325 681 1966 
z
" transform="scale(0.015625)"/>
       <path id="TimesNewRomanPSMT-74" d="M 1031 3803 
L 1031 2863 
L 1700 2863 
L 1700 2644 
L 1031 2644 
L 1031 788 
Q 1031 509 1111 412 
Q 1191 316 1316 316 
Q 1419 316 1516 380 
Q 1613 444 1666 569 
L 1788 569 
Q 1678 263 1478 108 
Q 1278 -47 1066 -47 
Q 922 -47 784 33 
Q 647 113 581 261 
Q 516 409 516 719 
L 516 2644 
L 63 2644 
L 63 2747 
Q 234 2816 414 2980 
Q 594 3144 734 3369 
Q 806 3488 934 3803 
L 1031 3803 
z
" transform="scale(0.015625)"/>
       <path id="TimesNewRomanPSMT-20" transform="scale(0.015625)"/>
       <path id="TimesNewRomanPSMT-4e" d="M -84 4238 
L 1066 4238 
L 3656 1059 
L 3656 3503 
Q 3656 3894 3569 3991 
Q 3453 4122 3203 4122 
L 3056 4122 
L 3056 4238 
L 4531 4238 
L 4531 4122 
L 4381 4122 
Q 4113 4122 4000 3959 
Q 3931 3859 3931 3503 
L 3931 -69 
L 3819 -69 
L 1025 3344 
L 1025 734 
Q 1025 344 1109 247 
Q 1228 116 1475 116 
L 1625 116 
L 1625 0 
L 150 0 
L 150 116 
L 297 116 
Q 569 116 681 278 
Q 750 378 750 734 
L 750 3681 
Q 566 3897 470 3965 
Q 375 4034 191 4094 
Q 100 4122 -84 4122 
L -84 4238 
z
" transform="scale(0.015625)"/>
       <path id="TimesNewRomanPSMT-6f" d="M 1600 2947 
Q 2250 2947 2644 2453 
Q 2978 2031 2978 1484 
Q 2978 1100 2793 706 
Q 2609 313 2286 112 
Q 1963 -88 1566 -88 
Q 919 -88 538 428 
Q 216 863 216 1403 
Q 216 1797 411 2186 
Q 606 2575 925 2761 
Q 1244 2947 1600 2947 
z
M 1503 2744 
Q 1338 2744 1170 2645 
Q 1003 2547 900 2300 
Q 797 2053 797 1666 
Q 797 1041 1045 587 
Q 1294 134 1700 134 
Q 2003 134 2200 384 
Q 2397 634 2397 1244 
Q 2397 2006 2069 2444 
Q 1847 2744 1503 2744 
z
" transform="scale(0.015625)"/>
       <path id="TimesNewRomanPSMT-6c" d="M 1184 4444 
L 1184 647 
Q 1184 378 1223 290 
Q 1263 203 1344 158 
Q 1425 113 1647 113 
L 1647 0 
L 244 0 
L 244 113 
Q 441 113 512 153 
Q 584 194 625 287 
Q 666 381 666 647 
L 666 3247 
Q 666 3731 644 3842 
Q 622 3953 573 3993 
Q 525 4034 450 4034 
Q 369 4034 244 3984 
L 191 4094 
L 1044 4444 
L 1184 4444 
z
" transform="scale(0.015625)"/>
       <path id="TimesNewRomanPSMT-69" d="M 928 4444 
Q 1059 4444 1151 4351 
Q 1244 4259 1244 4128 
Q 1244 3997 1151 3903 
Q 1059 3809 928 3809 
Q 797 3809 703 3903 
Q 609 3997 609 4128 
Q 609 4259 701 4351 
Q 794 4444 928 4444 
z
M 1188 2947 
L 1188 647 
Q 1188 378 1227 289 
Q 1266 200 1342 156 
Q 1419 113 1622 113 
L 1622 0 
L 231 0 
L 231 113 
Q 441 113 512 153 
Q 584 194 626 287 
Q 669 381 669 647 
L 669 1750 
Q 669 2216 641 2353 
Q 619 2453 572 2492 
Q 525 2531 444 2531 
Q 356 2531 231 2484 
L 188 2597 
L 1050 2947 
L 1188 2947 
z
" transform="scale(0.015625)"/>
       <path id="TimesNewRomanPSMT-7a" d="M 2688 878 
L 2653 0 
L 128 0 
L 128 113 
L 2028 2644 
L 1091 2644 
Q 788 2644 694 2605 
Q 600 2566 541 2456 
Q 456 2300 444 2069 
L 319 2069 
L 338 2863 
L 2738 2863 
L 2738 2747 
L 819 209 
L 1863 209 
Q 2191 209 2308 264 
Q 2425 319 2497 456 
Q 2547 556 2581 878 
L 2688 878 
z
" transform="scale(0.015625)"/>
       <path id="TimesNewRomanPSMT-64" d="M 2222 322 
Q 2013 103 1813 7 
Q 1613 -88 1381 -88 
Q 913 -88 563 304 
Q 213 697 213 1313 
Q 213 1928 600 2439 
Q 988 2950 1597 2950 
Q 1975 2950 2222 2709 
L 2222 3238 
Q 2222 3728 2198 3840 
Q 2175 3953 2125 3993 
Q 2075 4034 2000 4034 
Q 1919 4034 1784 3984 
L 1744 4094 
L 2597 4444 
L 2738 4444 
L 2738 1134 
Q 2738 631 2761 520 
Q 2784 409 2836 365 
Q 2888 322 2956 322 
Q 3041 322 3181 375 
L 3216 266 
L 2366 -88 
L 2222 -88 
L 2222 322 
z
M 2222 541 
L 2222 2016 
Q 2203 2228 2109 2403 
Q 2016 2578 1861 2667 
Q 1706 2756 1559 2756 
Q 1284 2756 1069 2509 
Q 784 2184 784 1559 
Q 784 928 1059 592 
Q 1334 256 1672 256 
Q 1956 256 2222 541 
z
" transform="scale(0.015625)"/>
       <path id="TimesNewRomanPSMT-42" d="M 2956 2163 
Q 3397 2069 3616 1863 
Q 3919 1575 3919 1159 
Q 3919 844 3719 555 
Q 3519 266 3170 133 
Q 2822 0 2106 0 
L 106 0 
L 106 116 
L 266 116 
Q 531 116 647 284 
Q 719 394 719 750 
L 719 3488 
Q 719 3881 628 3984 
Q 506 4122 266 4122 
L 106 4122 
L 106 4238 
L 1938 4238 
Q 2450 4238 2759 4163 
Q 3228 4050 3475 3764 
Q 3722 3478 3722 3106 
Q 3722 2788 3528 2536 
Q 3334 2284 2956 2163 
z
M 1319 2331 
Q 1434 2309 1582 2298 
Q 1731 2288 1909 2288 
Q 2366 2288 2595 2386 
Q 2825 2484 2947 2687 
Q 3069 2891 3069 3131 
Q 3069 3503 2766 3765 
Q 2463 4028 1881 4028 
Q 1569 4028 1319 3959 
L 1319 2331 
z
M 1319 306 
Q 1681 222 2034 222 
Q 2600 222 2897 476 
Q 3194 731 3194 1106 
Q 3194 1353 3059 1581 
Q 2925 1809 2622 1940 
Q 2319 2072 1872 2072 
Q 1678 2072 1540 2065 
Q 1403 2059 1319 2044 
L 1319 306 
z
" transform="scale(0.015625)"/>
       <path id="TimesNewRomanPSMT-73" d="M 2050 2947 
L 2050 1972 
L 1947 1972 
Q 1828 2431 1642 2597 
Q 1456 2763 1169 2763 
Q 950 2763 815 2647 
Q 681 2531 681 2391 
Q 681 2216 781 2091 
Q 878 1963 1175 1819 
L 1631 1597 
Q 2266 1288 2266 781 
Q 2266 391 1970 151 
Q 1675 -88 1309 -88 
Q 1047 -88 709 6 
Q 606 38 541 38 
Q 469 38 428 -44 
L 325 -44 
L 325 978 
L 428 978 
Q 516 541 762 319 
Q 1009 97 1316 97 
Q 1531 97 1667 223 
Q 1803 350 1803 528 
Q 1803 744 1651 891 
Q 1500 1038 1047 1263 
Q 594 1488 453 1669 
Q 313 1847 313 2119 
Q 313 2472 555 2709 
Q 797 2947 1181 2947 
Q 1350 2947 1591 2875 
Q 1750 2828 1803 2828 
Q 1853 2828 1881 2850 
Q 1909 2872 1947 2947 
L 2050 2947 
z
" transform="scale(0.015625)"/>
       <path id="TimesNewRomanPSMT-6e" d="M 1034 2341 
Q 1538 2947 1994 2947 
Q 2228 2947 2397 2830 
Q 2566 2713 2666 2444 
Q 2734 2256 2734 1869 
L 2734 647 
Q 2734 375 2778 278 
Q 2813 200 2889 156 
Q 2966 113 3172 113 
L 3172 0 
L 1756 0 
L 1756 113 
L 1816 113 
Q 2016 113 2095 173 
Q 2175 234 2206 353 
Q 2219 400 2219 647 
L 2219 1819 
Q 2219 2209 2117 2386 
Q 2016 2563 1775 2563 
Q 1403 2563 1034 2156 
L 1034 647 
Q 1034 356 1069 288 
Q 1113 197 1189 155 
Q 1266 113 1500 113 
L 1500 0 
L 84 0 
L 84 113 
L 147 113 
Q 366 113 442 223 
Q 519 334 519 647 
L 519 1709 
Q 519 2225 495 2337 
Q 472 2450 423 2490 
Q 375 2531 294 2531 
Q 206 2531 84 2484 
L 38 2597 
L 900 2947 
L 1034 2947 
L 1034 2341 
z
" transform="scale(0.015625)"/>
       <path id="TimesNewRomanPSMT-43" d="M 3853 4334 
L 3950 2894 
L 3853 2894 
Q 3659 3541 3300 3825 
Q 2941 4109 2438 4109 
Q 2016 4109 1675 3895 
Q 1334 3681 1139 3212 
Q 944 2744 944 2047 
Q 944 1472 1128 1050 
Q 1313 628 1683 403 
Q 2053 178 2528 178 
Q 2941 178 3256 354 
Q 3572 531 3950 1056 
L 4047 994 
Q 3728 428 3303 165 
Q 2878 -97 2294 -97 
Q 1241 -97 663 684 
Q 231 1266 231 2053 
Q 231 2688 515 3219 
Q 800 3750 1298 4042 
Q 1797 4334 2388 4334 
Q 2847 4334 3294 4109 
Q 3425 4041 3481 4041 
Q 3566 4041 3628 4100 
Q 3709 4184 3744 4334 
L 3853 4334 
z
" transform="scale(0.015625)"/>
       <path id="TimesNewRomanPSMT-66" d="M 1319 2638 
L 1319 756 
Q 1319 356 1406 250 
Q 1522 113 1716 113 
L 1975 113 
L 1975 0 
L 266 0 
L 266 113 
L 394 113 
Q 519 113 622 175 
Q 725 238 764 344 
Q 803 450 803 756 
L 803 2638 
L 247 2638 
L 247 2863 
L 803 2863 
L 803 3050 
Q 803 3478 940 3775 
Q 1078 4072 1361 4255 
Q 1644 4438 1997 4438 
Q 2325 4438 2600 4225 
Q 2781 4084 2781 3909 
Q 2781 3816 2700 3733 
Q 2619 3650 2525 3650 
Q 2453 3650 2373 3701 
Q 2294 3753 2178 3923 
Q 2063 4094 1966 4153 
Q 1869 4213 1750 4213 
Q 1606 4213 1506 4136 
Q 1406 4059 1362 3898 
Q 1319 3738 1319 3069 
L 1319 2863 
L 2056 2863 
L 2056 2638 
L 1319 2638 
z
" transform="scale(0.015625)"/>
       <path id="TimesNewRomanPSMT-67" d="M 966 1044 
Q 703 1172 562 1401 
Q 422 1631 422 1909 
Q 422 2334 742 2640 
Q 1063 2947 1563 2947 
Q 1972 2947 2272 2747 
L 2878 2747 
Q 3013 2747 3034 2739 
Q 3056 2731 3066 2713 
Q 3084 2684 3084 2613 
Q 3084 2531 3069 2500 
Q 3059 2484 3036 2475 
Q 3013 2466 2878 2466 
L 2506 2466 
Q 2681 2241 2681 1891 
Q 2681 1491 2375 1206 
Q 2069 922 1553 922 
Q 1341 922 1119 984 
Q 981 866 932 777 
Q 884 688 884 625 
Q 884 572 936 522 
Q 988 472 1138 450 
Q 1225 438 1575 428 
Q 2219 413 2409 384 
Q 2700 344 2873 169 
Q 3047 -6 3047 -263 
Q 3047 -616 2716 -925 
Q 2228 -1381 1444 -1381 
Q 841 -1381 425 -1109 
Q 191 -953 191 -784 
Q 191 -709 225 -634 
Q 278 -519 444 -313 
Q 466 -284 763 25 
Q 600 122 533 198 
Q 466 275 466 372 
Q 466 481 555 628 
Q 644 775 966 1044 
z
M 1509 2797 
Q 1278 2797 1122 2612 
Q 966 2428 966 2047 
Q 966 1553 1178 1281 
Q 1341 1075 1591 1075 
Q 1828 1075 1981 1253 
Q 2134 1431 2134 1813 
Q 2134 2309 1919 2591 
Q 1759 2797 1509 2797 
z
M 934 0 
Q 788 -159 713 -296 
Q 638 -434 638 -550 
Q 638 -700 819 -813 
Q 1131 -1006 1722 -1006 
Q 2284 -1006 2551 -807 
Q 2819 -609 2819 -384 
Q 2819 -222 2659 -153 
Q 2497 -84 2016 -72 
Q 1313 -53 934 0 
z
" transform="scale(0.015625)"/>
       <path id="TimesNewRomanPSMT-75" d="M 2709 2863 
L 2709 1128 
Q 2709 631 2732 520 
Q 2756 409 2807 365 
Q 2859 322 2928 322 
Q 3025 322 3147 375 
L 3191 266 
L 2334 -88 
L 2194 -88 
L 2194 519 
Q 1825 119 1631 15 
Q 1438 -88 1222 -88 
Q 981 -88 804 51 
Q 628 191 559 409 
Q 491 628 491 1028 
L 491 2306 
Q 491 2509 447 2587 
Q 403 2666 317 2708 
Q 231 2750 6 2747 
L 6 2863 
L 1009 2863 
L 1009 947 
Q 1009 547 1148 422 
Q 1288 297 1484 297 
Q 1619 297 1789 381 
Q 1959 466 2194 703 
L 2194 2325 
Q 2194 2569 2105 2655 
Q 2016 2741 1734 2747 
L 1734 2863 
L 2709 2863 
z
" transform="scale(0.015625)"/>
      </defs>
      <use xlink:href="#TimesNewRomanPSMT-50"/>
      <use xlink:href="#TimesNewRomanPSMT-61" x="55.615234"/>
      <use xlink:href="#TimesNewRomanPSMT-72" x="100"/>
      <use xlink:href="#TimesNewRomanPSMT-61" x="133.300781"/>
      <use xlink:href="#TimesNewRomanPSMT-6d" x="177.685547"/>
      <use xlink:href="#TimesNewRomanPSMT-65" x="255.46875"/>
      <use xlink:href="#TimesNewRomanPSMT-74" x="299.853516"/>
      <use xlink:href="#TimesNewRomanPSMT-65" x="327.636719"/>
      <use xlink:href="#TimesNewRomanPSMT-72" x="372.021484"/>
      <use xlink:href="#TimesNewRomanPSMT-20" x="405.322266"/>
      <use xlink:href="#TimesNewRomanPSMT-4e" x="430.322266"/>
      <use xlink:href="#TimesNewRomanPSMT-6f" x="502.539062"/>
      <use xlink:href="#TimesNewRomanPSMT-72" x="552.539062"/>
      <use xlink:href="#TimesNewRomanPSMT-6d" x="585.839844"/>
      <use xlink:href="#TimesNewRomanPSMT-61" x="663.623047"/>
      <use xlink:href="#TimesNewRomanPSMT-6c" x="708.007812"/>
      <use xlink:href="#TimesNewRomanPSMT-69" x="735.791016"/>
      <use xlink:href="#TimesNewRomanPSMT-7a" x="763.574219"/>
      <use xlink:href="#TimesNewRomanPSMT-65" x="807.958984"/>
      <use xlink:href="#TimesNewRomanPSMT-64" x="852.34375"/>
      <use xlink:href="#TimesNewRomanPSMT-20" x="902.34375"/>
      <use xlink:href="#TimesNewRomanPSMT-74" x="927.34375"/>
      <use xlink:href="#TimesNewRomanPSMT-6f" x="955.126953"/>
      <use xlink:href="#TimesNewRomanPSMT-20" x="1005.126953"/>
      <use xlink:href="#TimesNewRomanPSMT-42" x="1030.126953"/>
      <use xlink:href="#TimesNewRomanPSMT-61" x="1096.826172"/>
      <use xlink:href="#TimesNewRomanPSMT-73" x="1141.210938"/>
      <use xlink:href="#TimesNewRomanPSMT-65" x="1180.126953"/>
      <use xlink:href="#TimesNewRomanPSMT-6c" x="1224.511719"/>
      <use xlink:href="#TimesNewRomanPSMT-69" x="1252.294922"/>
      <use xlink:href="#TimesNewRomanPSMT-6e" x="1280.078125"/>
      <use xlink:href="#TimesNewRomanPSMT-65" x="1330.078125"/>
      <use xlink:href="#TimesNewRomanPSMT-20" x="1374.462891"/>
      <use xlink:href="#TimesNewRomanPSMT-43" x="1399.462891"/>
      <use xlink:href="#TimesNewRomanPSMT-6f" x="1466.162109"/>
      <use xlink:href="#TimesNewRomanPSMT-6e" x="1516.162109"/>
      <use xlink:href="#TimesNewRomanPSMT-66" x="1566.162109"/>
      <use xlink:href="#TimesNewRomanPSMT-69" x="1599.462891"/>
      <use xlink:href="#TimesNewRomanPSMT-67" x="1627.246094"/>
      <use xlink:href="#TimesNewRomanPSMT-75" x="1677.246094"/>
      <use xlink:href="#TimesNewRomanPSMT-72" x="1727.246094"/>
      <use xlink:href="#TimesNewRomanPSMT-61" x="1760.546875"/>
      <use xlink:href="#TimesNewRomanPSMT-74" x="1804.931641"/>
      <use xlink:href="#TimesNewRomanPSMT-69" x="1832.714844"/>
      <use xlink:href="#TimesNewRomanPSMT-6f" x="1860.498047"/>
      <use xlink:href="#TimesNewRomanPSMT-6e" x="1910.498047"/>
     </g>
    </g>
   </g>
   <g id="matplotlib.axis_2">
    <g id="ytick_1">
     <g id="line2d_52">
      <path d="M 38.083053 227.015385 
L 342.59976 227.015385 
" clip-path="url(#pba8c9078e0)" style="fill: none; stroke: #b0b0b0; stroke-width: 0.25; stroke-linecap: square"/>
     </g>
     <g id="line2d_53">
      <defs>
       <path id="mc4f18da0c7" d="M 0 0 
L -3.5 0 
" style="stroke: #000000; stroke-width: 0.8"/>
      </defs>
      <g>
       <use xlink:href="#mc4f18da0c7" x="38.083053" y="227.015385" style="stroke: #000000; stroke-width: 0.8"/>
      </g>
     </g>
     <g id="text_11">
      <!-- 0 -->
      <g transform="translate(26.083053 230.48726)scale(0.1 -0.1)">
       <use xlink:href="#TimesNewRomanPSMT-30"/>
      </g>
     </g>
    </g>
    <g id="ytick_2">
     <g id="line2d_54">
      <path d="M 38.083053 182.906731 
L 342.59976 182.906731 
" clip-path="url(#pba8c9078e0)" style="fill: none; stroke: #b0b0b0; stroke-width: 0.25; stroke-linecap: square"/>
     </g>
     <g id="line2d_55">
      <g>
       <use xlink:href="#mc4f18da0c7" x="38.083053" y="182.906731" style="stroke: #000000; stroke-width: 0.8"/>
      </g>
     </g>
     <g id="text_12">
      <!-- 100 -->
      <g transform="translate(16.083053 186.378606)scale(0.1 -0.1)">
       <use xlink:href="#TimesNewRomanPSMT-31"/>
       <use xlink:href="#TimesNewRomanPSMT-30" x="50"/>
       <use xlink:href="#TimesNewRomanPSMT-30" x="100"/>
      </g>
     </g>
    </g>
    <g id="ytick_3">
     <g id="line2d_56">
      <path d="M 38.083053 138.798077 
L 342.59976 138.798077 
" clip-path="url(#pba8c9078e0)" style="fill: none; stroke: #b0b0b0; stroke-width: 0.25; stroke-linecap: square"/>
     </g>
     <g id="line2d_57">
      <g>
       <use xlink:href="#mc4f18da0c7" x="38.083053" y="138.798077" style="stroke: #000000; stroke-width: 0.8"/>
      </g>
     </g>
     <g id="text_13">
      <!-- 200 -->
      <g transform="translate(16.083053 142.269952)scale(0.1 -0.1)">
       <use xlink:href="#TimesNewRomanPSMT-32"/>
       <use xlink:href="#TimesNewRomanPSMT-30" x="50"/>
       <use xlink:href="#TimesNewRomanPSMT-30" x="100"/>
      </g>
     </g>
    </g>
    <g id="ytick_4">
     <g id="line2d_58">
      <path d="M 38.083053 94.689423 
L 342.59976 94.689423 
" clip-path="url(#pba8c9078e0)" style="fill: none; stroke: #b0b0b0; stroke-width: 0.25; stroke-linecap: square"/>
     </g>
     <g id="line2d_59">
      <g>
       <use xlink:href="#mc4f18da0c7" x="38.083053" y="94.689423" style="stroke: #000000; stroke-width: 0.8"/>
      </g>
     </g>
     <g id="text_14">
      <!-- 300 -->
      <g transform="translate(16.083053 98.161298)scale(0.1 -0.1)">
       <defs>
        <path id="TimesNewRomanPSMT-33" d="M 325 3431 
Q 506 3859 782 4092 
Q 1059 4325 1472 4325 
Q 1981 4325 2253 3994 
Q 2459 3747 2459 3466 
Q 2459 3003 1878 2509 
Q 2269 2356 2469 2072 
Q 2669 1788 2669 1403 
Q 2669 853 2319 450 
Q 1863 -75 997 -75 
Q 569 -75 414 31 
Q 259 138 259 259 
Q 259 350 332 419 
Q 406 488 509 488 
Q 588 488 669 463 
Q 722 447 909 348 
Q 1097 250 1169 231 
Q 1284 197 1416 197 
Q 1734 197 1970 444 
Q 2206 691 2206 1028 
Q 2206 1275 2097 1509 
Q 2016 1684 1919 1775 
Q 1784 1900 1550 2001 
Q 1316 2103 1072 2103 
L 972 2103 
L 972 2197 
Q 1219 2228 1467 2375 
Q 1716 2522 1828 2728 
Q 1941 2934 1941 3181 
Q 1941 3503 1739 3701 
Q 1538 3900 1238 3900 
Q 753 3900 428 3381 
L 325 3431 
z
" transform="scale(0.015625)"/>
       </defs>
       <use xlink:href="#TimesNewRomanPSMT-33"/>
       <use xlink:href="#TimesNewRomanPSMT-30" x="50"/>
       <use xlink:href="#TimesNewRomanPSMT-30" x="100"/>
      </g>
     </g>
    </g>
    <g id="ytick_5">
     <g id="line2d_60">
      <path d="M 38.083053 50.580769 
L 342.59976 50.580769 
" clip-path="url(#pba8c9078e0)" style="fill: none; stroke: #b0b0b0; stroke-width: 0.25; stroke-linecap: square"/>
     </g>
     <g id="line2d_61">
      <g>
       <use xlink:href="#mc4f18da0c7" x="38.083053" y="50.580769" style="stroke: #000000; stroke-width: 0.8"/>
      </g>
     </g>
     <g id="text_15">
      <!-- 400 -->
      <g transform="translate(16.083053 54.052644)scale(0.1 -0.1)">
       <defs>
        <path id="TimesNewRomanPSMT-34" d="M 2978 1563 
L 2978 1119 
L 2409 1119 
L 2409 0 
L 1894 0 
L 1894 1119 
L 100 1119 
L 100 1519 
L 2066 4325 
L 2409 4325 
L 2409 1563 
L 2978 1563 
z
M 1894 1563 
L 1894 3666 
L 406 1563 
L 1894 1563 
z
" transform="scale(0.015625)"/>
       </defs>
       <use xlink:href="#TimesNewRomanPSMT-34"/>
       <use xlink:href="#TimesNewRomanPSMT-30" x="50"/>
       <use xlink:href="#TimesNewRomanPSMT-30" x="100"/>
      </g>
     </g>
    </g>
    <g id="ytick_6">
     <g id="line2d_62">
      <path d="M 38.083053 6.472115 
L 342.59976 6.472115 
" clip-path="url(#pba8c9078e0)" style="fill: none; stroke: #b0b0b0; stroke-width: 0.25; stroke-linecap: square"/>
     </g>
     <g id="line2d_63">
      <g>
       <use xlink:href="#mc4f18da0c7" x="38.083053" y="6.472115" style="stroke: #000000; stroke-width: 0.8"/>
      </g>
     </g>
     <g id="text_16">
      <!-- 500 -->
      <g transform="translate(16.083053 9.94399)scale(0.1 -0.1)">
       <use xlink:href="#TimesNewRomanPSMT-35"/>
       <use xlink:href="#TimesNewRomanPSMT-30" x="50"/>
       <use xlink:href="#TimesNewRomanPSMT-30" x="100"/>
      </g>
     </g>
    </g>
    <g id="ytick_7">
     <g id="line2d_64">
      <defs>
       <path id="ma0ebb2ec77" d="M 0 0 
L -1.5 0 
" style="stroke: #000000; stroke-width: 0.5"/>
      </defs>
      <g>
       <use xlink:href="#ma0ebb2ec77" x="38.083053" y="218.193654" style="stroke: #000000; stroke-width: 0.5"/>
      </g>
     </g>
    </g>
    <g id="ytick_8">
     <g id="line2d_65">
      <g>
       <use xlink:href="#ma0ebb2ec77" x="38.083053" y="209.371923" style="stroke: #000000; stroke-width: 0.5"/>
      </g>
     </g>
    </g>
    <g id="ytick_9">
     <g id="line2d_66">
      <g>
       <use xlink:href="#ma0ebb2ec77" x="38.083053" y="200.550193" style="stroke: #000000; stroke-width: 0.5"/>
      </g>
     </g>
    </g>
    <g id="ytick_10">
     <g id="line2d_67">
      <g>
       <use xlink:href="#ma0ebb2ec77" x="38.083053" y="191.728462" style="stroke: #000000; stroke-width: 0.5"/>
      </g>
     </g>
    </g>
    <g id="ytick_11">
     <g id="line2d_68">
      <g>
       <use xlink:href="#ma0ebb2ec77" x="38.083053" y="174.085" style="stroke: #000000; stroke-width: 0.5"/>
      </g>
     </g>
    </g>
    <g id="ytick_12">
     <g id="line2d_69">
      <g>
       <use xlink:href="#ma0ebb2ec77" x="38.083053" y="165.263269" style="stroke: #000000; stroke-width: 0.5"/>
      </g>
     </g>
    </g>
    <g id="ytick_13">
     <g id="line2d_70">
      <g>
       <use xlink:href="#ma0ebb2ec77" x="38.083053" y="156.441539" style="stroke: #000000; stroke-width: 0.5"/>
      </g>
     </g>
    </g>
    <g id="ytick_14">
     <g id="line2d_71">
      <g>
       <use xlink:href="#ma0ebb2ec77" x="38.083053" y="147.619808" style="stroke: #000000; stroke-width: 0.5"/>
      </g>
     </g>
    </g>
    <g id="ytick_15">
     <g id="line2d_72">
      <g>
       <use xlink:href="#ma0ebb2ec77" x="38.083053" y="129.976346" style="stroke: #000000; stroke-width: 0.5"/>
      </g>
     </g>
    </g>
    <g id="ytick_16">
     <g id="line2d_73">
      <g>
       <use xlink:href="#ma0ebb2ec77" x="38.083053" y="121.154615" style="stroke: #000000; stroke-width: 0.5"/>
      </g>
     </g>
    </g>
    <g id="ytick_17">
     <g id="line2d_74">
      <g>
       <use xlink:href="#ma0ebb2ec77" x="38.083053" y="112.332885" style="stroke: #000000; stroke-width: 0.5"/>
      </g>
     </g>
    </g>
    <g id="ytick_18">
     <g id="line2d_75">
      <g>
       <use xlink:href="#ma0ebb2ec77" x="38.083053" y="103.511154" style="stroke: #000000; stroke-width: 0.5"/>
      </g>
     </g>
    </g>
    <g id="ytick_19">
     <g id="line2d_76">
      <g>
       <use xlink:href="#ma0ebb2ec77" x="38.083053" y="85.867692" style="stroke: #000000; stroke-width: 0.5"/>
      </g>
     </g>
    </g>
    <g id="ytick_20">
     <g id="line2d_77">
      <g>
       <use xlink:href="#ma0ebb2ec77" x="38.083053" y="77.045961" style="stroke: #000000; stroke-width: 0.5"/>
      </g>
     </g>
    </g>
    <g id="ytick_21">
     <g id="line2d_78">
      <g>
       <use xlink:href="#ma0ebb2ec77" x="38.083053" y="68.224231" style="stroke: #000000; stroke-width: 0.5"/>
      </g>
     </g>
    </g>
    <g id="ytick_22">
     <g id="line2d_79">
      <g>
       <use xlink:href="#ma0ebb2ec77" x="38.083053" y="59.4025" style="stroke: #000000; stroke-width: 0.5"/>
      </g>
     </g>
    </g>
    <g id="ytick_23">
     <g id="line2d_80">
      <g>
       <use xlink:href="#ma0ebb2ec77" x="38.083053" y="41.759038" style="stroke: #000000; stroke-width: 0.5"/>
      </g>
     </g>
    </g>
    <g id="ytick_24">
     <g id="line2d_81">
      <g>
       <use xlink:href="#ma0ebb2ec77" x="38.083053" y="32.937307" style="stroke: #000000; stroke-width: 0.5"/>
      </g>
     </g>
    </g>
    <g id="ytick_25">
     <g id="line2d_82">
      <g>
       <use xlink:href="#ma0ebb2ec77" x="38.083053" y="24.115577" style="stroke: #000000; stroke-width: 0.5"/>
      </g>
     </g>
    </g>
    <g id="ytick_26">
     <g id="line2d_83">
      <g>
       <use xlink:href="#ma0ebb2ec77" x="38.083053" y="15.293846" style="stroke: #000000; stroke-width: 0.5"/>
      </g>
     </g>
    </g>
    <g id="text_17">
     <!-- Turbine Work Rate (W) -->
     <g transform="translate(9.94399 164.255469)rotate(-90)scale(0.1 -0.1)">
      <defs>
       <path id="TimesNewRomanPSMT-54" d="M 3703 4238 
L 3750 3244 
L 3631 3244 
Q 3597 3506 3538 3619 
Q 3441 3800 3280 3886 
Q 3119 3972 2856 3972 
L 2259 3972 
L 2259 734 
Q 2259 344 2344 247 
Q 2463 116 2709 116 
L 2856 116 
L 2856 0 
L 1059 0 
L 1059 116 
L 1209 116 
Q 1478 116 1591 278 
Q 1659 378 1659 734 
L 1659 3972 
L 1150 3972 
Q 853 3972 728 3928 
Q 566 3869 450 3700 
Q 334 3531 313 3244 
L 194 3244 
L 244 4238 
L 3703 4238 
z
" transform="scale(0.015625)"/>
       <path id="TimesNewRomanPSMT-62" d="M 984 2369 
Q 1400 2947 1881 2947 
Q 2322 2947 2650 2570 
Q 2978 2194 2978 1541 
Q 2978 778 2472 313 
Q 2038 -88 1503 -88 
Q 1253 -88 995 3 
Q 738 94 469 275 
L 469 3241 
Q 469 3728 445 3840 
Q 422 3953 372 3993 
Q 322 4034 247 4034 
Q 159 4034 28 3984 
L -16 4094 
L 844 4444 
L 984 4444 
L 984 2369 
z
M 984 2169 
L 984 456 
Q 1144 300 1314 220 
Q 1484 141 1663 141 
Q 1947 141 2192 453 
Q 2438 766 2438 1363 
Q 2438 1913 2192 2208 
Q 1947 2503 1634 2503 
Q 1469 2503 1303 2419 
Q 1178 2356 984 2169 
z
" transform="scale(0.015625)"/>
       <path id="TimesNewRomanPSMT-57" d="M 5991 4238 
L 5991 4122 
Q 5825 4122 5722 4062 
Q 5619 4003 5525 3841 
Q 5463 3731 5328 3319 
L 4147 -97 
L 4022 -97 
L 3056 2613 
L 2097 -97 
L 1984 -97 
L 725 3422 
Q 584 3816 547 3888 
Q 484 4006 376 4064 
Q 269 4122 84 4122 
L 84 4238 
L 1653 4238 
L 1653 4122 
L 1578 4122 
Q 1413 4122 1325 4047 
Q 1238 3972 1238 3866 
Q 1238 3756 1375 3363 
L 2209 984 
L 2913 3006 
L 2788 3363 
L 2688 3647 
Q 2622 3803 2541 3922 
Q 2500 3981 2441 4022 
Q 2363 4078 2284 4103 
Q 2225 4122 2097 4122 
L 2097 4238 
L 3747 4238 
L 3747 4122 
L 3634 4122 
Q 3459 4122 3378 4047 
Q 3297 3972 3297 3844 
Q 3297 3684 3438 3288 
L 4250 984 
L 5056 3319 
Q 5194 3706 5194 3856 
Q 5194 3928 5148 3990 
Q 5103 4053 5034 4078 
Q 4916 4122 4725 4122 
L 4725 4238 
L 5991 4238 
z
" transform="scale(0.015625)"/>
       <path id="TimesNewRomanPSMT-6b" d="M 1047 4444 
L 1047 1597 
L 1775 2259 
Q 2006 2472 2044 2528 
Q 2069 2566 2069 2603 
Q 2069 2666 2017 2711 
Q 1966 2756 1847 2763 
L 1847 2863 
L 3091 2863 
L 3091 2763 
Q 2834 2756 2664 2684 
Q 2494 2613 2291 2428 
L 1556 1750 
L 2291 822 
Q 2597 438 2703 334 
Q 2853 188 2966 144 
Q 3044 113 3238 113 
L 3238 0 
L 1847 0 
L 1847 113 
Q 1966 116 2008 148 
Q 2050 181 2050 241 
Q 2050 313 1925 472 
L 1047 1594 
L 1047 644 
Q 1047 366 1086 278 
Q 1125 191 1197 153 
Q 1269 116 1509 113 
L 1509 0 
L 53 0 
L 53 113 
Q 272 113 381 166 
Q 447 200 481 272 
Q 528 375 528 628 
L 528 3234 
Q 528 3731 506 3842 
Q 484 3953 434 3995 
Q 384 4038 303 4038 
Q 238 4038 106 3984 
L 53 4094 
L 903 4444 
L 1047 4444 
z
" transform="scale(0.015625)"/>
       <path id="TimesNewRomanPSMT-52" d="M 4325 0 
L 3194 0 
L 1759 1981 
Q 1600 1975 1500 1975 
Q 1459 1975 1412 1976 
Q 1366 1978 1316 1981 
L 1316 750 
Q 1316 350 1403 253 
Q 1522 116 1759 116 
L 1925 116 
L 1925 0 
L 109 0 
L 109 116 
L 269 116 
Q 538 116 653 291 
Q 719 388 719 750 
L 719 3488 
Q 719 3888 631 3984 
Q 509 4122 269 4122 
L 109 4122 
L 109 4238 
L 1653 4238 
Q 2328 4238 2648 4139 
Q 2969 4041 3192 3777 
Q 3416 3513 3416 3147 
Q 3416 2756 3161 2468 
Q 2906 2181 2372 2063 
L 3247 847 
Q 3547 428 3762 290 
Q 3978 153 4325 116 
L 4325 0 
z
M 1316 2178 
Q 1375 2178 1419 2176 
Q 1463 2175 1491 2175 
Q 2097 2175 2405 2437 
Q 2713 2700 2713 3106 
Q 2713 3503 2464 3751 
Q 2216 4000 1806 4000 
Q 1625 4000 1316 3941 
L 1316 2178 
z
" transform="scale(0.015625)"/>
       <path id="TimesNewRomanPSMT-28" d="M 1988 -1253 
L 1988 -1369 
Q 1516 -1131 1200 -813 
Q 750 -359 506 256 
Q 263 872 263 1534 
Q 263 2503 741 3301 
Q 1219 4100 1988 4444 
L 1988 4313 
Q 1603 4100 1356 3731 
Q 1109 3363 987 2797 
Q 866 2231 866 1616 
Q 866 947 969 400 
Q 1050 -31 1165 -292 
Q 1281 -553 1476 -793 
Q 1672 -1034 1988 -1253 
z
" transform="scale(0.015625)"/>
       <path id="TimesNewRomanPSMT-29" d="M 144 4313 
L 144 4444 
Q 619 4209 934 3891 
Q 1381 3434 1625 2820 
Q 1869 2206 1869 1541 
Q 1869 572 1392 -226 
Q 916 -1025 144 -1369 
L 144 -1253 
Q 528 -1038 776 -670 
Q 1025 -303 1145 264 
Q 1266 831 1266 1447 
Q 1266 2113 1163 2663 
Q 1084 3094 967 3353 
Q 850 3613 656 3853 
Q 463 4094 144 4313 
z
" transform="scale(0.015625)"/>
      </defs>
      <use xlink:href="#TimesNewRomanPSMT-54"/>
      <use xlink:href="#TimesNewRomanPSMT-75" x="57.583984"/>
      <use xlink:href="#TimesNewRomanPSMT-72" x="107.583984"/>
      <use xlink:href="#TimesNewRomanPSMT-62" x="140.884766"/>
      <use xlink:href="#TimesNewRomanPSMT-69" x="190.884766"/>
      <use xlink:href="#TimesNewRomanPSMT-6e" x="218.667969"/>
      <use xlink:href="#TimesNewRomanPSMT-65" x="268.667969"/>
      <use xlink:href="#TimesNewRomanPSMT-20" x="313.052734"/>
      <use xlink:href="#TimesNewRomanPSMT-57" x="336.302734"/>
      <use xlink:href="#TimesNewRomanPSMT-6f" x="422.6875"/>
      <use xlink:href="#TimesNewRomanPSMT-72" x="472.6875"/>
      <use xlink:href="#TimesNewRomanPSMT-6b" x="505.988281"/>
      <use xlink:href="#TimesNewRomanPSMT-20" x="555.988281"/>
      <use xlink:href="#TimesNewRomanPSMT-52" x="580.988281"/>
      <use xlink:href="#TimesNewRomanPSMT-61" x="647.6875"/>
      <use xlink:href="#TimesNewRomanPSMT-74" x="692.072266"/>
      <use xlink:href="#TimesNewRomanPSMT-65" x="719.855469"/>
      <use xlink:href="#TimesNewRomanPSMT-20" x="764.240234"/>
      <use xlink:href="#TimesNewRomanPSMT-28" x="789.240234"/>
      <use xlink:href="#TimesNewRomanPSMT-57" x="822.541016"/>
      <use xlink:href="#TimesNewRomanPSMT-29" x="916.925781"/>
     </g>
    </g>
   </g>
   <g id="line2d_84">
    <path d="M 110.58703 184.472254 
L 114.937269 183.510875 
L 119.287508 182.576797 
L 123.637747 181.666255 
L 127.987985 180.776278 
L 132.338224 179.904506 
L 136.688463 179.049016 
L 141.038701 178.208253 
L 145.38894 177.380883 
L 149.739179 176.565764 
L 154.089417 175.761965 
L 158.439656 174.968674 
L 162.789895 174.185124 
L 167.140133 173.410758 
L 171.490372 172.644979 
L 175.840611 171.887325 
L 180.190849 171.137375 
L 184.541088 170.394702 
L 188.891327 169.659001 
L 193.241565 168.929906 
L 197.591804 168.207188 
L 201.942043 167.49053 
L 206.292281 166.779741 
L 210.64252 166.074573 
L 214.992759 165.374829 
L 219.342997 164.680337 
L 223.693236 163.99089 
L 228.043475 163.306371 
L 232.393713 162.626591 
L 236.743952 161.951443 
L 241.094191 161.280786 
L 245.44443 160.614474 
L 249.794668 159.952435 
L 254.144907 159.294531 
L 258.495146 158.640651 
L 262.845384 157.990738 
L 267.195623 157.344671 
L 271.545862 156.702355 
L 275.8961 156.063745 
L 280.246339 155.428738 
L 284.596578 154.797248 
L 288.946816 154.169235 
L 293.297055 153.54462 
L 297.647294 152.923321 
L 301.997532 152.305296 
L 306.347771 151.690491 
L 310.69801 151.078831 
L 315.048248 150.470261 
L 319.398487 149.864751 
L 323.748726 149.26224 
L 328.098964 148.662664 
" clip-path="url(#pba8c9078e0)" style="fill: none; stroke: #000000; stroke-width: 1.2; stroke-linecap: square"/>
   </g>
   <g id="line2d_85">
    <path d="M 110.58703 146.951251 
L 114.937269 149.495173 
L 119.287508 151.786964 
L 123.637747 153.864465 
L 127.987985 155.758077 
L 132.338224 157.492536 
L 136.688463 159.088199 
L 141.038701 160.561989 
L 145.38894 161.928107 
L 149.739179 163.198563 
L 154.089417 164.383595 
L 158.439656 165.491989 
L 162.789895 166.53133 
L 167.140133 167.50821 
L 171.490372 168.428381 
L 175.840611 169.296894 
L 180.190849 170.1182 
L 184.541088 170.896239 
L 188.891327 171.634514 
L 193.241565 172.33615 
L 197.591804 173.003943 
L 201.942043 173.640407 
L 206.292281 174.247806 
L 210.64252 174.828185 
L 214.992759 175.383397 
L 219.342997 175.915125 
L 223.693236 176.424904 
L 228.043475 176.914131 
L 232.393713 177.384088 
L 236.743952 177.835948 
L 241.094191 178.270788 
L 245.44443 178.689602 
L 249.794668 179.093303 
L 254.144907 179.482737 
L 258.495146 179.858685 
L 262.845384 180.221872 
L 267.195623 180.57297 
L 271.545862 180.912603 
L 275.8961 181.241354 
L 280.246339 181.559765 
L 284.596578 181.868341 
L 288.946816 182.167555 
L 293.297055 182.45785 
L 297.647294 182.73964 
L 301.997532 183.013313 
L 306.347771 183.279235 
L 310.69801 183.537747 
L 315.048248 183.789173 
L 319.398487 184.033815 
L 323.748726 184.271961 
L 328.098964 184.503881 
" clip-path="url(#pba8c9078e0)" style="fill: none; stroke: #0000ff; stroke-width: 1.2; stroke-linecap: square"/>
   </g>
   <g id="line2d_86">
    <path d="M 110.58703 209.233765 
L 114.937269 208.414508 
L 119.287508 207.469292 
L 123.637747 206.38637 
L 127.987985 205.153527 
L 132.338224 203.758092 
L 136.688463 202.186931 
L 141.038701 200.426459 
L 145.38894 198.46264 
L 149.739179 196.280989 
L 154.089417 193.866576 
L 158.439656 191.204029 
L 162.789895 188.277535 
L 167.140133 185.070846 
L 171.490372 181.567276 
L 175.840611 177.74971 
L 180.190849 173.6006 
L 184.541088 169.10197 
L 188.891327 164.235419 
L 193.241565 158.982121 
L 197.591804 153.322828 
L 201.942043 147.237872 
L 206.292281 140.707165 
L 210.64252 133.710204 
L 214.992759 126.22607 
L 219.342997 118.23343 
L 223.693236 109.710539 
L 228.043475 100.635243 
L 232.393713 90.984978 
L 236.743952 80.736773 
L 241.094191 69.86725 
L 245.44443 58.352628 
L 249.794668 46.168722 
L 254.144907 33.290944 
L 258.495146 19.694308 
L 262.845384 5.353425 
L 264.674454 -1 
" clip-path="url(#pba8c9078e0)" style="fill: none; stroke: #ffe600; stroke-width: 1.2; stroke-linecap: square"/>
   </g>
   <g id="line2d_87">
    <path d="M 110.58703 167.703935 
L 114.937269 168.079575 
L 119.287508 168.413595 
L 123.637747 168.711285 
L 127.987985 168.977034 
L 132.338224 169.214522 
L 136.688463 169.42686 
L 141.038701 169.616697 
L 145.38894 169.786309 
L 149.739179 169.937659 
L 154.089417 170.072454 
L 158.439656 170.192184 
L 162.789895 170.298159 
L 167.140133 170.391533 
L 171.490372 170.473329 
L 175.840611 170.544459 
L 180.190849 170.605736 
L 184.541088 170.657888 
L 188.891327 170.701571 
L 193.241565 170.737376 
L 197.591804 170.765839 
L 201.942043 170.787446 
L 206.292281 170.802637 
L 210.64252 170.811816 
L 214.992759 170.815352 
L 219.342997 170.813582 
L 223.693236 170.806816 
L 228.043475 170.79534 
L 232.393713 170.779416 
L 236.743952 170.759287 
L 241.094191 170.735178 
L 245.44443 170.707297 
L 249.794668 170.675838 
L 254.144907 170.640981 
L 258.495146 170.602893 
L 262.845384 170.561731 
L 267.195623 170.517639 
L 271.545862 170.470755 
L 275.8961 170.421206 
L 280.246339 170.369112 
L 284.596578 170.314586 
L 288.946816 170.257732 
L 293.297055 170.19865 
L 297.647294 170.137434 
L 301.997532 170.074171 
L 306.347771 170.008945 
L 310.69801 169.941835 
L 315.048248 169.872913 
L 319.398487 169.802252 
L 323.748726 169.729916 
L 328.098964 169.65597 
" clip-path="url(#pba8c9078e0)" style="fill: none; stroke: #24bf32; stroke-width: 1.2; stroke-linecap: square"/>
   </g>
   <g id="line2d_88">
    <path d="M 110.58703 214.646146 
L 114.937269 213.257312 
L 119.287508 211.754306 
L 123.637747 210.129201 
L 127.987985 208.373701 
L 132.338224 206.479122 
L 136.688463 204.436378 
L 141.038701 202.235964 
L 145.38894 199.867941 
L 149.739179 197.321926 
L 154.089417 194.587073 
L 158.439656 191.65206 
L 162.789895 188.505083 
L 167.140133 185.133846 
L 171.490372 181.525547 
L 175.840611 177.666865 
L 180.190849 173.543952 
L 184.541088 169.14244 
L 188.891327 164.447411 
L 193.241565 159.443399 
L 197.591804 154.1144 
L 201.942043 148.44384 
L 206.292281 142.414584 
L 210.64252 136.008923 
L 214.992759 129.208587 
L 219.342997 121.994718 
L 223.693236 114.347876 
L 228.043475 106.248048 
L 232.393713 97.67462 
L 236.743952 88.6064 
L 241.094191 79.021598 
L 245.44443 68.897857 
L 249.794668 58.212178 
L 254.144907 46.941006 
L 258.495146 35.060175 
L 262.845384 22.544915 
L 267.195623 9.369887 
L 270.450246 -1 
" clip-path="url(#pba8c9078e0)" style="fill: none; stroke: #ff0000; stroke-width: 1.2; stroke-linecap: square"/>
   </g>
   <g id="line2d_89">
    <path d="M 110.58703 170.641476 
L 112.269123 170.641476 
L 113.951215 170.641476 
L 115.633307 170.641476 
L 117.3154 170.641476 
L 118.997492 170.641476 
L 120.679584 170.641476 
L 122.361676 170.641476 
L 124.043769 170.641476 
L 125.725861 170.641476 
L 127.407953 170.641476 
L 129.090046 170.641476 
L 130.772138 170.641476 
L 132.45423 170.641476 
L 134.136323 170.641476 
L 135.818415 170.641476 
L 137.500507 170.641476 
L 139.182599 170.641476 
L 140.864692 170.641476 
L 142.546784 170.641476 
L 144.228876 170.641476 
L 145.910969 170.641476 
L 147.593061 170.641476 
L 149.275153 170.641476 
L 150.957245 170.641476 
L 152.639338 170.641476 
L 154.32143 170.641476 
L 156.003522 170.641476 
L 157.685615 170.641476 
L 159.367707 170.641476 
L 161.049799 170.641476 
L 162.731891 170.641476 
L 164.413984 170.641476 
L 166.096076 170.641476 
L 167.778168 170.641476 
L 169.460261 170.641476 
L 171.142353 170.641476 
L 172.824445 170.641476 
L 174.506537 170.641476 
L 176.18863 170.641476 
L 177.870722 170.641476 
L 179.552814 170.641476 
L 181.234907 170.641476 
L 182.916999 170.641476 
L 184.599091 170.641476 
L 186.281183 170.641476 
L 187.963276 170.641476 
L 189.645368 170.641476 
L 191.32746 170.641476 
L 193.009553 170.641476 
L 194.691645 170.641476 
" clip-path="url(#pba8c9078e0)" style="fill: none; stroke: #808080; stroke-width: 1.2; stroke-linecap: square"/>
   </g>
   <g id="line2d_90">
    <path d="M 110.58703 190.484889 
L 114.937269 189.280687 
L 119.287508 188.080047 
L 123.637747 186.882277 
L 127.987985 185.686848 
L 132.338224 184.493351 
L 136.688463 183.301462 
L 141.038701 182.110915 
L 145.38894 180.921503 
L 149.739179 179.73305 
L 154.089417 178.545412 
L 158.439656 177.358469 
L 162.789895 176.17212 
L 167.140133 174.98628 
L 171.490372 173.800874 
L 175.840611 172.615844 
L 180.190849 171.43113 
L 184.541088 170.24669 
L 188.891327 169.062482 
L 193.241565 167.878471 
L 197.591804 166.694626 
L 201.942043 165.510919 
L 206.292281 164.327328 
L 210.64252 163.143831 
L 214.992759 161.96041 
L 219.342997 160.777047 
L 223.693236 159.593731 
L 228.043475 158.410444 
L 232.393713 157.227174 
L 236.743952 156.043914 
L 241.094191 154.860655 
L 245.44443 153.677384 
L 249.794668 152.494099 
L 254.144907 151.310789 
L 258.495146 150.127448 
L 262.845384 148.944073 
L 267.195623 147.760654 
L 271.545862 146.577191 
L 275.8961 145.39368 
L 280.246339 144.210112 
L 284.596578 143.02649 
L 288.946816 141.842806 
L 293.297055 140.659058 
L 297.647294 139.475246 
L 301.997532 138.291365 
L 306.347771 137.107415 
L 310.69801 135.92339 
L 315.048248 134.739292 
L 319.398487 133.555118 
L 323.748726 132.370868 
L 328.098964 131.186537 
" clip-path="url(#pba8c9078e0)" style="fill: none; stroke: #ff69b4; stroke-width: 1.2; stroke-linecap: square"/>
   </g>
   <g id="patch_3">
    <path d="M 38.083053 227.015385 
L 38.083053 6.472115 
" style="fill: none; stroke: #000000; stroke-width: 0.8; stroke-linejoin: miter; stroke-linecap: square"/>
   </g>
   <g id="patch_4">
    <path d="M 342.59976 227.015385 
L 342.59976 6.472115 
" style="fill: none; stroke: #000000; stroke-width: 0.8; stroke-linejoin: miter; stroke-linecap: square"/>
   </g>
   <g id="patch_5">
    <path d="M 38.083053 227.015385 
L 342.59976 227.015385 
" style="fill: none; stroke: #000000; stroke-width: 0.8; stroke-linejoin: miter; stroke-linecap: square"/>
   </g>
   <g id="patch_6">
    <path d="M 38.083053 6.472115 
L 342.59976 6.472115 
" style="fill: none; stroke: #000000; stroke-width: 0.8; stroke-linejoin: miter; stroke-linecap: square"/>
   </g>
   <g id="legend_1">
    <g id="patch_7">
     <path d="M 45.083053 107.811177 
L 197.983053 107.811177 
Q 199.983053 107.811177 199.983053 105.811177 
L 199.983053 13.472115 
Q 199.983053 11.472115 197.983053 11.472115 
L 45.083053 11.472115 
Q 43.083053 11.472115 43.083053 13.472115 
L 43.083053 105.811177 
Q 43.083053 107.811177 45.083053 107.811177 
z
" style="fill: #ffffff; opacity: 0.8; stroke: #cccccc; stroke-linejoin: miter"/>
    </g>
    <g id="text_18">
     <!-- Normalized Parameter -->
     <g transform="translate(72.528365 22.09399)scale(0.1 -0.1)">
      <defs>
       <path id="TimesNewRomanPS-BoldMT-4e" d="M 1594 4238 
L 3684 1609 
L 3684 3431 
Q 3684 3813 3575 3947 
Q 3425 4128 3072 4122 
L 3072 4238 
L 4472 4238 
L 4472 4122 
Q 4203 4088 4111 4033 
Q 4019 3978 3967 3854 
Q 3916 3731 3916 3431 
L 3916 -97 
L 3809 -97 
L 944 3431 
L 944 738 
Q 944 372 1111 244 
Q 1278 116 1494 116 
L 1594 116 
L 1594 0 
L 91 0 
L 91 116 
Q 441 119 578 259 
Q 716 400 716 738 
L 716 3728 
L 625 3841 
Q 491 4009 387 4062 
Q 284 4116 91 4122 
L 91 4238 
L 1594 4238 
z
" transform="scale(0.015625)"/>
       <path id="TimesNewRomanPS-BoldMT-6f" d="M 1594 3009 
Q 1975 3009 2303 2812 
Q 2631 2616 2801 2253 
Q 2972 1891 2972 1459 
Q 2972 838 2656 419 
Q 2275 -88 1603 -88 
Q 944 -88 587 375 
Q 231 838 231 1447 
Q 231 2075 595 2542 
Q 959 3009 1594 3009 
z
M 1606 2788 
Q 1447 2788 1333 2667 
Q 1219 2547 1183 2192 
Q 1147 1838 1147 1206 
Q 1147 872 1191 581 
Q 1225 359 1337 243 
Q 1450 128 1594 128 
Q 1734 128 1828 206 
Q 1950 313 1991 503 
Q 2053 800 2053 1703 
Q 2053 2234 1993 2432 
Q 1934 2631 1819 2722 
Q 1738 2788 1606 2788 
z
" transform="scale(0.015625)"/>
       <path id="TimesNewRomanPS-BoldMT-72" d="M 1428 2922 
L 1428 2259 
Q 1719 2713 1937 2861 
Q 2156 3009 2359 3009 
Q 2534 3009 2639 2901 
Q 2744 2794 2744 2597 
Q 2744 2388 2642 2272 
Q 2541 2156 2397 2156 
Q 2231 2156 2109 2262 
Q 1988 2369 1966 2381 
Q 1934 2400 1894 2400 
Q 1803 2400 1722 2331 
Q 1594 2225 1528 2028 
Q 1428 1725 1428 1359 
L 1428 688 
L 1431 513 
Q 1431 334 1453 284 
Q 1491 200 1564 161 
Q 1638 122 1813 113 
L 1813 0 
L 234 0 
L 234 113 
Q 425 128 492 217 
Q 559 306 559 688 
L 559 2303 
Q 559 2553 534 2622 
Q 503 2709 443 2750 
Q 384 2791 234 2806 
L 234 2922 
L 1428 2922 
z
" transform="scale(0.015625)"/>
       <path id="TimesNewRomanPS-BoldMT-6d" d="M 1428 2922 
L 1428 2538 
Q 1669 2800 1873 2904 
Q 2078 3009 2322 3009 
Q 2603 3009 2793 2878 
Q 2984 2747 3088 2478 
Q 3338 2759 3567 2884 
Q 3797 3009 4047 3009 
Q 4350 3009 4529 2870 
Q 4709 2731 4779 2517 
Q 4850 2303 4850 1834 
L 4850 638 
Q 4850 300 4911 219 
Q 4972 138 5166 113 
L 5166 0 
L 3656 0 
L 3656 113 
Q 3834 128 3919 250 
Q 3975 334 3975 638 
L 3975 1894 
Q 3975 2284 3944 2390 
Q 3913 2497 3845 2548 
Q 3778 2600 3688 2600 
Q 3553 2600 3415 2501 
Q 3278 2403 3138 2206 
L 3138 638 
Q 3138 322 3191 241 
Q 3263 125 3466 113 
L 3466 0 
L 1953 0 
L 1953 113 
Q 2075 119 2145 173 
Q 2216 228 2239 304 
Q 2263 381 2263 638 
L 2263 1894 
Q 2263 2291 2231 2391 
Q 2200 2491 2126 2547 
Q 2053 2603 1969 2603 
Q 1844 2603 1741 2538 
Q 1594 2441 1428 2206 
L 1428 638 
Q 1428 328 1489 229 
Q 1550 131 1744 113 
L 1744 0 
L 238 0 
L 238 113 
Q 422 131 500 231 
Q 553 300 553 638 
L 553 2288 
Q 553 2619 492 2700 
Q 431 2781 238 2806 
L 238 2922 
L 1428 2922 
z
" transform="scale(0.015625)"/>
       <path id="TimesNewRomanPS-BoldMT-61" d="M 1828 431 
Q 1294 -41 869 -41 
Q 619 -41 453 123 
Q 288 288 288 534 
Q 288 869 575 1136 
Q 863 1403 1828 1847 
L 1828 2141 
Q 1828 2472 1792 2558 
Q 1756 2644 1656 2708 
Q 1556 2772 1431 2772 
Q 1228 2772 1097 2681 
Q 1016 2625 1016 2550 
Q 1016 2484 1103 2388 
Q 1222 2253 1222 2128 
Q 1222 1975 1108 1867 
Q 994 1759 809 1759 
Q 613 1759 480 1878 
Q 347 1997 347 2156 
Q 347 2381 525 2586 
Q 703 2791 1022 2900 
Q 1341 3009 1684 3009 
Q 2100 3009 2342 2832 
Q 2584 2656 2656 2450 
Q 2700 2319 2700 1847 
L 2700 713 
Q 2700 513 2715 461 
Q 2731 409 2762 384 
Q 2794 359 2834 359 
Q 2916 359 3000 475 
L 3094 400 
Q 2938 169 2770 64 
Q 2603 -41 2391 -41 
Q 2141 -41 2000 76 
Q 1859 194 1828 431 
z
M 1828 659 
L 1828 1638 
Q 1450 1416 1266 1163 
Q 1144 994 1144 822 
Q 1144 678 1247 569 
Q 1325 484 1466 484 
Q 1622 484 1828 659 
z
" transform="scale(0.015625)"/>
       <path id="TimesNewRomanPS-BoldMT-6c" d="M 1359 4238 
L 1359 606 
Q 1359 297 1431 211 
Q 1503 125 1713 113 
L 1713 0 
L 134 0 
L 134 113 
Q 328 119 422 225 
Q 484 297 484 606 
L 484 3631 
Q 484 3938 412 4023 
Q 341 4109 134 4122 
L 134 4238 
L 1359 4238 
z
" transform="scale(0.015625)"/>
       <path id="TimesNewRomanPS-BoldMT-69" d="M 919 4338 
Q 1122 4338 1262 4195 
Q 1403 4053 1403 3853 
Q 1403 3653 1261 3512 
Q 1119 3372 919 3372 
Q 719 3372 578 3512 
Q 438 3653 438 3853 
Q 438 4053 578 4195 
Q 719 4338 919 4338 
z
M 1356 2922 
L 1356 606 
Q 1356 297 1428 211 
Q 1500 125 1709 113 
L 1709 0 
L 131 0 
L 131 113 
Q 325 119 419 225 
Q 481 297 481 606 
L 481 2313 
Q 481 2622 409 2708 
Q 338 2794 131 2806 
L 131 2922 
L 1356 2922 
z
" transform="scale(0.015625)"/>
       <path id="TimesNewRomanPS-BoldMT-7a" d="M 2609 0 
L 66 0 
L 66 69 
L 1672 2731 
L 1203 2731 
Q 900 2731 769 2676 
Q 638 2622 556 2501 
Q 475 2381 388 2072 
L 278 2072 
L 278 2922 
L 2738 2922 
L 2738 2838 
L 1144 200 
L 1344 200 
Q 1944 200 2209 372 
Q 2475 544 2609 1000 
L 2697 1000 
L 2609 0 
z
" transform="scale(0.015625)"/>
       <path id="TimesNewRomanPS-BoldMT-65" d="M 2691 1566 
L 1088 1566 
Q 1116 984 1397 647 
Q 1613 388 1916 388 
Q 2103 388 2256 492 
Q 2409 597 2584 869 
L 2691 800 
Q 2453 316 2165 114 
Q 1878 -88 1500 -88 
Q 850 -88 516 413 
Q 247 816 247 1413 
Q 247 2144 642 2576 
Q 1038 3009 1569 3009 
Q 2013 3009 2339 2645 
Q 2666 2281 2691 1566 
z
M 1922 1775 
Q 1922 2278 1867 2465 
Q 1813 2653 1697 2750 
Q 1631 2806 1522 2806 
Q 1359 2806 1256 2647 
Q 1072 2369 1072 1884 
L 1072 1775 
L 1922 1775 
z
" transform="scale(0.015625)"/>
       <path id="TimesNewRomanPS-BoldMT-64" d="M 3056 4238 
L 3056 875 
Q 3056 534 3075 472 
Q 3100 369 3170 319 
Q 3241 269 3416 256 
L 3416 153 
L 2181 -88 
L 2181 375 
Q 1959 106 1786 9 
Q 1613 -88 1394 -88 
Q 834 -88 509 413 
Q 247 819 247 1409 
Q 247 1881 409 2254 
Q 572 2628 855 2818 
Q 1138 3009 1463 3009 
Q 1672 3009 1834 2928 
Q 1997 2847 2181 2644 
L 2181 3525 
Q 2181 3859 2153 3928 
Q 2116 4019 2041 4062 
Q 1966 4106 1759 4106 
L 1759 4238 
L 3056 4238 
z
M 2181 2256 
Q 1950 2700 1616 2700 
Q 1500 2700 1425 2638 
Q 1309 2541 1236 2297 
Q 1163 2053 1163 1550 
Q 1163 997 1244 731 
Q 1325 466 1466 347 
Q 1538 288 1663 288 
Q 1938 288 2181 719 
L 2181 2256 
z
" transform="scale(0.015625)"/>
       <path id="TimesNewRomanPS-BoldMT-20" transform="scale(0.015625)"/>
       <path id="TimesNewRomanPS-BoldMT-50" d="M 1728 1919 
L 1728 744 
Q 1728 400 1770 311 
Q 1813 222 1920 169 
Q 2028 116 2316 116 
L 2316 0 
L 163 0 
L 163 116 
Q 456 116 561 170 
Q 666 225 708 312 
Q 750 400 750 744 
L 750 3494 
Q 750 3838 708 3927 
Q 666 4016 559 4069 
Q 453 4122 163 4122 
L 163 4238 
L 2009 4238 
Q 2922 4238 3319 3913 
Q 3716 3588 3716 3100 
Q 3716 2688 3459 2394 
Q 3203 2100 2753 1994 
Q 2450 1919 1728 1919 
z
M 1728 3994 
L 1728 2163 
Q 1831 2156 1884 2156 
Q 2266 2156 2472 2382 
Q 2678 2609 2678 3084 
Q 2678 3556 2472 3775 
Q 2266 3994 1856 3994 
L 1728 3994 
z
" transform="scale(0.015625)"/>
       <path id="TimesNewRomanPS-BoldMT-74" d="M 1375 3991 
L 1375 2922 
L 2069 2922 
L 2069 2613 
L 1375 2613 
L 1375 809 
Q 1375 556 1398 482 
Q 1422 409 1481 364 
Q 1541 319 1591 319 
Q 1794 319 1975 628 
L 2069 559 
Q 1816 -41 1247 -41 
Q 969 -41 776 114 
Q 584 269 531 459 
Q 500 566 500 1034 
L 500 2613 
L 119 2613 
L 119 2722 
Q 513 3000 789 3306 
Q 1066 3613 1272 3991 
L 1375 3991 
z
" transform="scale(0.015625)"/>
      </defs>
      <use xlink:href="#TimesNewRomanPS-BoldMT-4e"/>
      <use xlink:href="#TimesNewRomanPS-BoldMT-6f" x="72.216797"/>
      <use xlink:href="#TimesNewRomanPS-BoldMT-72" x="122.216797"/>
      <use xlink:href="#TimesNewRomanPS-BoldMT-6d" x="166.601562"/>
      <use xlink:href="#TimesNewRomanPS-BoldMT-61" x="249.902344"/>
      <use xlink:href="#TimesNewRomanPS-BoldMT-6c" x="299.902344"/>
      <use xlink:href="#TimesNewRomanPS-BoldMT-69" x="327.685547"/>
      <use xlink:href="#TimesNewRomanPS-BoldMT-7a" x="355.46875"/>
      <use xlink:href="#TimesNewRomanPS-BoldMT-65" x="399.853516"/>
      <use xlink:href="#TimesNewRomanPS-BoldMT-64" x="444.238281"/>
      <use xlink:href="#TimesNewRomanPS-BoldMT-20" x="499.853516"/>
      <use xlink:href="#TimesNewRomanPS-BoldMT-50" x="524.853516"/>
      <use xlink:href="#TimesNewRomanPS-BoldMT-61" x="585.9375"/>
      <use xlink:href="#TimesNewRomanPS-BoldMT-72" x="635.9375"/>
      <use xlink:href="#TimesNewRomanPS-BoldMT-61" x="680.322266"/>
      <use xlink:href="#TimesNewRomanPS-BoldMT-6d" x="730.322266"/>
      <use xlink:href="#TimesNewRomanPS-BoldMT-65" x="813.623047"/>
      <use xlink:href="#TimesNewRomanPS-BoldMT-74" x="858.007812"/>
      <use xlink:href="#TimesNewRomanPS-BoldMT-65" x="891.308594"/>
      <use xlink:href="#TimesNewRomanPS-BoldMT-72" x="935.693359"/>
     </g>
    </g>
    <g id="line2d_91">
     <path d="M 47.083053 30.033052 
L 57.083053 30.033052 
L 67.083053 30.033052 
" style="fill: none; stroke: #000000; stroke-width: 1.2; stroke-linecap: square"/>
    </g>
    <g id="text_19">
     <!-- core pressure $P_3$ -->
     <g transform="translate(75.083053 33.533052)scale(0.1 -0.1)">
      <defs>
       <path id="TimesNewRomanPSMT-63" d="M 2631 1088 
Q 2516 522 2178 217 
Q 1841 -88 1431 -88 
Q 944 -88 581 321 
Q 219 731 219 1428 
Q 219 2103 620 2525 
Q 1022 2947 1584 2947 
Q 2006 2947 2278 2723 
Q 2550 2500 2550 2259 
Q 2550 2141 2473 2067 
Q 2397 1994 2259 1994 
Q 2075 1994 1981 2113 
Q 1928 2178 1911 2362 
Q 1894 2547 1784 2644 
Q 1675 2738 1481 2738 
Q 1169 2738 978 2506 
Q 725 2200 725 1697 
Q 725 1184 976 792 
Q 1228 400 1656 400 
Q 1963 400 2206 609 
Q 2378 753 2541 1131 
L 2631 1088 
z
" transform="scale(0.015625)"/>
       <path id="TimesNewRomanPSMT-70" d="M -6 2578 
L 875 2934 
L 994 2934 
L 994 2266 
Q 1216 2644 1439 2795 
Q 1663 2947 1909 2947 
Q 2341 2947 2628 2609 
Q 2981 2197 2981 1534 
Q 2981 794 2556 309 
Q 2206 -88 1675 -88 
Q 1444 -88 1275 -22 
Q 1150 25 994 166 
L 994 -706 
Q 994 -1000 1030 -1079 
Q 1066 -1159 1155 -1206 
Q 1244 -1253 1478 -1253 
L 1478 -1369 
L -22 -1369 
L -22 -1253 
L 56 -1253 
Q 228 -1256 350 -1188 
Q 409 -1153 442 -1076 
Q 475 -1000 475 -688 
L 475 2019 
Q 475 2297 450 2372 
Q 425 2447 370 2484 
Q 316 2522 222 2522 
Q 147 2522 31 2478 
L -6 2578 
z
M 994 2081 
L 994 1013 
Q 994 666 1022 556 
Q 1066 375 1236 237 
Q 1406 100 1666 100 
Q 1978 100 2172 344 
Q 2425 663 2425 1241 
Q 2425 1897 2138 2250 
Q 1938 2494 1663 2494 
Q 1513 2494 1366 2419 
Q 1253 2363 994 2081 
z
" transform="scale(0.015625)"/>
       <path id="DejaVuSerif-Italic-50" d="M 1594 2375 
L 2419 2375 
Q 2884 2375 3176 2626 
Q 3469 2878 3559 3353 
Q 3653 3831 3458 4081 
Q 3263 4331 2797 4331 
L 1972 4331 
L 1594 2375 
z
M -97 0 
L -34 331 
L 559 331 
L 1338 4331 
L 744 4331 
L 809 4666 
L 3016 4666 
Q 3716 4666 4056 4311 
Q 4397 3956 4278 3353 
Q 4163 2753 3684 2397 
Q 3206 2041 2506 2041 
L 1528 2041 
L 1194 331 
L 1916 331 
L 1853 0 
L -97 0 
z
" transform="scale(0.015625)"/>
       <path id="DejaVuSerif-33" d="M 622 4469 
Q 988 4606 1323 4678 
Q 1659 4750 1953 4750 
Q 2638 4750 3022 4454 
Q 3406 4159 3406 3634 
Q 3406 3213 3140 2930 
Q 2875 2647 2388 2547 
Q 2963 2466 3280 2130 
Q 3597 1794 3597 1259 
Q 3597 606 3158 257 
Q 2719 -91 1894 -91 
Q 1528 -91 1179 -12 
Q 831 66 488 225 
L 488 1131 
L 838 1131 
Q 869 681 1141 450 
Q 1413 219 1906 219 
Q 2384 219 2661 495 
Q 2938 772 2938 1253 
Q 2938 1803 2653 2086 
Q 2369 2369 1819 2369 
L 1522 2369 
L 1522 2688 
L 1678 2688 
Q 2225 2688 2498 2914 
Q 2772 3141 2772 3597 
Q 2772 4006 2547 4223 
Q 2322 4441 1900 4441 
Q 1478 4441 1245 4241 
Q 1013 4041 972 3647 
L 622 3647 
L 622 4469 
z
" transform="scale(0.015625)"/>
      </defs>
      <use xlink:href="#TimesNewRomanPSMT-63" transform="translate(0 0.09375)"/>
      <use xlink:href="#TimesNewRomanPSMT-6f" transform="translate(44.384766 0.09375)"/>
      <use xlink:href="#TimesNewRomanPSMT-72" transform="translate(94.384766 0.09375)"/>
      <use xlink:href="#TimesNewRomanPSMT-65" transform="translate(127.685547 0.09375)"/>
      <use xlink:href="#TimesNewRomanPSMT-20" transform="translate(172.070312 0.09375)"/>
      <use xlink:href="#TimesNewRomanPSMT-70" transform="translate(197.070312 0.09375)"/>
      <use xlink:href="#TimesNewRomanPSMT-72" transform="translate(247.070312 0.09375)"/>
      <use xlink:href="#TimesNewRomanPSMT-65" transform="translate(280.371094 0.09375)"/>
      <use xlink:href="#TimesNewRomanPSMT-73" transform="translate(324.755859 0.09375)"/>
      <use xlink:href="#TimesNewRomanPSMT-73" transform="translate(363.671875 0.09375)"/>
      <use xlink:href="#TimesNewRomanPSMT-75" transform="translate(402.587891 0.09375)"/>
      <use xlink:href="#TimesNewRomanPSMT-72" transform="translate(452.587891 0.09375)"/>
      <use xlink:href="#TimesNewRomanPSMT-65" transform="translate(485.888672 0.09375)"/>
      <use xlink:href="#TimesNewRomanPSMT-20" transform="translate(530.273438 0.09375)"/>
      <use xlink:href="#DejaVuSerif-Italic-50" transform="translate(555.273438 0.09375)"/>
      <use xlink:href="#DejaVuSerif-33" transform="translate(622.558594 -15.478125)scale(0.7)"/>
     </g>
    </g>
    <g id="line2d_92">
     <path d="M 47.083053 41.533052 
L 57.083053 41.533052 
L 67.083053 41.533052 
" style="fill: none; stroke: #0000ff; stroke-width: 1.2; stroke-linecap: square"/>
    </g>
    <g id="text_20">
     <!-- channel temperature $T_1$ -->
     <g transform="translate(75.083053 45.033052)scale(0.1 -0.1)">
      <defs>
       <path id="TimesNewRomanPSMT-68" d="M 1041 4444 
L 1041 2350 
Q 1388 2731 1591 2839 
Q 1794 2947 1997 2947 
Q 2241 2947 2416 2812 
Q 2591 2678 2675 2391 
Q 2734 2191 2734 1659 
L 2734 647 
Q 2734 375 2778 275 
Q 2809 200 2884 156 
Q 2959 113 3159 113 
L 3159 0 
L 1753 0 
L 1753 113 
L 1819 113 
Q 2019 113 2097 173 
Q 2175 234 2206 353 
Q 2216 403 2216 647 
L 2216 1659 
Q 2216 2128 2167 2275 
Q 2119 2422 2012 2495 
Q 1906 2569 1756 2569 
Q 1603 2569 1437 2487 
Q 1272 2406 1041 2159 
L 1041 647 
Q 1041 353 1073 281 
Q 1106 209 1195 161 
Q 1284 113 1503 113 
L 1503 0 
L 84 0 
L 84 113 
Q 275 113 384 172 
Q 447 203 484 290 
Q 522 378 522 647 
L 522 3238 
Q 522 3728 498 3840 
Q 475 3953 426 3993 
Q 378 4034 297 4034 
Q 231 4034 84 3984 
L 41 4094 
L 897 4444 
L 1041 4444 
z
" transform="scale(0.015625)"/>
       <path id="DejaVuSerif-Italic-54" d="M 769 0 
L 831 331 
L 1428 331 
L 2200 4294 
L 828 4294 
L 688 3566 
L 303 3566 
L 516 4666 
L 4659 4666 
L 4447 3566 
L 4063 3566 
L 4203 4294 
L 2831 4294 
L 2059 331 
L 2656 331 
L 2594 0 
L 769 0 
z
" transform="scale(0.015625)"/>
       <path id="DejaVuSerif-31" d="M 909 0 
L 909 331 
L 1722 331 
L 1722 4213 
L 781 3603 
L 781 4013 
L 1919 4750 
L 2350 4750 
L 2350 331 
L 3163 331 
L 3163 0 
L 909 0 
z
" transform="scale(0.015625)"/>
      </defs>
      <use xlink:href="#TimesNewRomanPSMT-63" transform="translate(0 0.09375)"/>
      <use xlink:href="#TimesNewRomanPSMT-68" transform="translate(44.384766 0.09375)"/>
      <use xlink:href="#TimesNewRomanPSMT-61" transform="translate(94.384766 0.09375)"/>
      <use xlink:href="#TimesNewRomanPSMT-6e" transform="translate(138.769531 0.09375)"/>
      <use xlink:href="#TimesNewRomanPSMT-6e" transform="translate(188.769531 0.09375)"/>
      <use xlink:href="#TimesNewRomanPSMT-65" transform="translate(238.769531 0.09375)"/>
      <use xlink:href="#TimesNewRomanPSMT-6c" transform="translate(283.154297 0.09375)"/>
      <use xlink:href="#TimesNewRomanPSMT-20" transform="translate(310.9375 0.09375)"/>
      <use xlink:href="#TimesNewRomanPSMT-74" transform="translate(335.9375 0.09375)"/>
      <use xlink:href="#TimesNewRomanPSMT-65" transform="translate(363.720703 0.09375)"/>
      <use xlink:href="#TimesNewRomanPSMT-6d" transform="translate(408.105469 0.09375)"/>
      <use xlink:href="#TimesNewRomanPSMT-70" transform="translate(485.888672 0.09375)"/>
      <use xlink:href="#TimesNewRomanPSMT-65" transform="translate(535.888672 0.09375)"/>
      <use xlink:href="#TimesNewRomanPSMT-72" transform="translate(580.273438 0.09375)"/>
      <use xlink:href="#TimesNewRomanPSMT-61" transform="translate(613.574219 0.09375)"/>
      <use xlink:href="#TimesNewRomanPSMT-74" transform="translate(657.958984 0.09375)"/>
      <use xlink:href="#TimesNewRomanPSMT-75" transform="translate(685.742188 0.09375)"/>
      <use xlink:href="#TimesNewRomanPSMT-72" transform="translate(735.742188 0.09375)"/>
      <use xlink:href="#TimesNewRomanPSMT-65" transform="translate(769.042969 0.09375)"/>
      <use xlink:href="#TimesNewRomanPSMT-20" transform="translate(813.427734 0.09375)"/>
      <use xlink:href="#DejaVuSerif-Italic-54" transform="translate(838.427734 0.09375)"/>
      <use xlink:href="#DejaVuSerif-31" transform="translate(905.126953 -15.478125)scale(0.7)"/>
     </g>
    </g>
    <g id="line2d_93">
     <path d="M 47.083053 52.733052 
L 57.083053 52.733052 
L 67.083053 52.733052 
" style="fill: none; stroke: #ffe600; stroke-width: 1.2; stroke-linecap: square"/>
    </g>
    <g id="text_21">
     <!-- case radius $r_5$ -->
     <g transform="translate(75.083053 56.233052)scale(0.1 -0.1)">
      <defs>
       <path id="DejaVuSerif-Italic-72" d="M 3375 3328 
L 3213 2497 
L 2881 2497 
Q 2891 2559 2891 2613 
Q 2891 2775 2816 2866 
Q 2719 2988 2484 2988 
Q 2059 2988 1775 2694 
Q 1491 2400 1384 1850 
L 1025 0 
L 450 0 
L 1031 2994 
L 481 2994 
L 544 3322 
L 1669 3322 
L 1556 2731 
Q 1791 3078 2089 3245 
Q 2388 3413 2769 3413 
Q 2909 3413 3059 3391 
Q 3209 3369 3375 3328 
z
" transform="scale(0.015625)"/>
       <path id="DejaVuSerif-35" d="M 3219 4666 
L 3219 4153 
L 1081 4153 
L 1081 2816 
Q 1244 2928 1461 2984 
Q 1678 3041 1947 3041 
Q 2703 3041 3140 2622 
Q 3578 2203 3578 1478 
Q 3578 738 3136 323 
Q 2694 -91 1894 -91 
Q 1572 -91 1234 -12 
Q 897 66 544 225 
L 544 1131 
L 897 1131 
Q 925 688 1179 453 
Q 1434 219 1894 219 
Q 2388 219 2653 544 
Q 2919 869 2919 1478 
Q 2919 2084 2655 2407 
Q 2391 2731 1894 2731 
Q 1613 2731 1398 2631 
Q 1184 2531 1019 2322 
L 750 2322 
L 750 4666 
L 3219 4666 
z
" transform="scale(0.015625)"/>
      </defs>
      <use xlink:href="#TimesNewRomanPSMT-63" transform="translate(0 0.5625)"/>
      <use xlink:href="#TimesNewRomanPSMT-61" transform="translate(44.384766 0.5625)"/>
      <use xlink:href="#TimesNewRomanPSMT-73" transform="translate(88.769531 0.5625)"/>
      <use xlink:href="#TimesNewRomanPSMT-65" transform="translate(127.685547 0.5625)"/>
      <use xlink:href="#TimesNewRomanPSMT-20" transform="translate(172.070312 0.5625)"/>
      <use xlink:href="#TimesNewRomanPSMT-72" transform="translate(197.070312 0.5625)"/>
      <use xlink:href="#TimesNewRomanPSMT-61" transform="translate(230.371094 0.5625)"/>
      <use xlink:href="#TimesNewRomanPSMT-64" transform="translate(274.755859 0.5625)"/>
      <use xlink:href="#TimesNewRomanPSMT-69" transform="translate(324.755859 0.5625)"/>
      <use xlink:href="#TimesNewRomanPSMT-75" transform="translate(352.539062 0.5625)"/>
      <use xlink:href="#TimesNewRomanPSMT-73" transform="translate(402.539062 0.5625)"/>
      <use xlink:href="#TimesNewRomanPSMT-20" transform="translate(441.455078 0.5625)"/>
      <use xlink:href="#DejaVuSerif-Italic-72" transform="translate(466.455078 0.5625)"/>
      <use xlink:href="#DejaVuSerif-35" transform="translate(514.257812 -15.009375)scale(0.7)"/>
     </g>
    </g>
    <g id="line2d_94">
     <path d="M 47.083053 64.033052 
L 57.083053 64.033052 
L 67.083053 64.033052 
" style="fill: none; stroke: #24bf32; stroke-width: 1.2; stroke-linecap: square"/>
    </g>
    <g id="text_22">
     <!-- outer channel width $(r_6 - r_5)$ -->
     <g transform="translate(75.083053 67.533052)scale(0.1 -0.1)">
      <defs>
       <path id="TimesNewRomanPSMT-77" d="M 41 2863 
L 1241 2863 
L 1241 2747 
Q 1075 2734 1023 2687 
Q 972 2641 972 2553 
Q 972 2456 1025 2319 
L 1638 672 
L 2253 2013 
L 2091 2434 
Q 2016 2622 1894 2694 
Q 1825 2738 1638 2747 
L 1638 2863 
L 3000 2863 
L 3000 2747 
Q 2775 2738 2681 2666 
Q 2619 2616 2619 2506 
Q 2619 2444 2644 2378 
L 3294 734 
L 3897 2319 
Q 3959 2488 3959 2588 
Q 3959 2647 3898 2694 
Q 3838 2741 3659 2747 
L 3659 2863 
L 4563 2863 
L 4563 2747 
Q 4291 2706 4163 2378 
L 3206 -88 
L 3078 -88 
L 2363 1741 
L 1528 -88 
L 1413 -88 
L 494 2319 
Q 403 2547 315 2626 
Q 228 2706 41 2747 
L 41 2863 
z
" transform="scale(0.015625)"/>
       <path id="DejaVuSerif-28" d="M 2041 -997 
Q 1281 -656 893 83 
Q 506 822 506 1931 
Q 506 3044 893 3783 
Q 1281 4522 2041 4863 
L 2041 4556 
Q 1559 4225 1350 3623 
Q 1141 3022 1141 1931 
Q 1141 844 1350 242 
Q 1559 -359 2041 -691 
L 2041 -997 
z
" transform="scale(0.015625)"/>
       <path id="DejaVuSerif-36" d="M 2094 219 
Q 2534 219 2771 542 
Q 3009 866 3009 1472 
Q 3009 2078 2771 2401 
Q 2534 2725 2094 2725 
Q 1647 2725 1412 2412 
Q 1178 2100 1178 1509 
Q 1178 888 1415 553 
Q 1653 219 2094 219 
z
M 1075 2569 
Q 1288 2803 1556 2918 
Q 1825 3034 2163 3034 
Q 2859 3034 3264 2615 
Q 3669 2197 3669 1472 
Q 3669 763 3233 336 
Q 2797 -91 2069 -91 
Q 1278 -91 853 498 
Q 428 1088 428 2181 
Q 428 3406 931 4078 
Q 1434 4750 2350 4750 
Q 2597 4750 2869 4703 
Q 3141 4656 3425 4563 
L 3425 3794 
L 3072 3794 
Q 3034 4109 2831 4275 
Q 2628 4441 2284 4441 
Q 1678 4441 1381 3981 
Q 1084 3522 1075 2569 
z
" transform="scale(0.015625)"/>
       <path id="DejaVuSerif-2212" d="M 678 2259 
L 4684 2259 
L 4684 1753 
L 678 1753 
L 678 2259 
z
" transform="scale(0.015625)"/>
       <path id="DejaVuSerif-29" d="M 453 -997 
L 453 -691 
Q 934 -359 1145 242 
Q 1356 844 1356 1931 
Q 1356 3022 1145 3623 
Q 934 4225 453 4556 
L 453 4863 
Q 1216 4522 1603 3783 
Q 1991 3044 1991 1931 
Q 1991 822 1603 83 
Q 1216 -656 453 -997 
z
" transform="scale(0.015625)"/>
      </defs>
      <use xlink:href="#TimesNewRomanPSMT-6f" transform="translate(0 0.015625)"/>
      <use xlink:href="#TimesNewRomanPSMT-75" transform="translate(50 0.015625)"/>
      <use xlink:href="#TimesNewRomanPSMT-74" transform="translate(100 0.015625)"/>
      <use xlink:href="#TimesNewRomanPSMT-65" transform="translate(127.783203 0.015625)"/>
      <use xlink:href="#TimesNewRomanPSMT-72" transform="translate(172.167969 0.015625)"/>
      <use xlink:href="#TimesNewRomanPSMT-20" transform="translate(205.46875 0.015625)"/>
      <use xlink:href="#TimesNewRomanPSMT-63" transform="translate(230.46875 0.015625)"/>
      <use xlink:href="#TimesNewRomanPSMT-68" transform="translate(274.853516 0.015625)"/>
      <use xlink:href="#TimesNewRomanPSMT-61" transform="translate(324.853516 0.015625)"/>
      <use xlink:href="#TimesNewRomanPSMT-6e" transform="translate(369.238281 0.015625)"/>
      <use xlink:href="#TimesNewRomanPSMT-6e" transform="translate(419.238281 0.015625)"/>
      <use xlink:href="#TimesNewRomanPSMT-65" transform="translate(469.238281 0.015625)"/>
      <use xlink:href="#TimesNewRomanPSMT-6c" transform="translate(513.623047 0.015625)"/>
      <use xlink:href="#TimesNewRomanPSMT-20" transform="translate(541.40625 0.015625)"/>
      <use xlink:href="#TimesNewRomanPSMT-77" transform="translate(566.40625 0.015625)"/>
      <use xlink:href="#TimesNewRomanPSMT-69" transform="translate(638.623047 0.015625)"/>
      <use xlink:href="#TimesNewRomanPSMT-64" transform="translate(666.40625 0.015625)"/>
      <use xlink:href="#TimesNewRomanPSMT-74" transform="translate(716.40625 0.015625)"/>
      <use xlink:href="#TimesNewRomanPSMT-68" transform="translate(744.189453 0.015625)"/>
      <use xlink:href="#TimesNewRomanPSMT-20" transform="translate(794.189453 0.015625)"/>
      <use xlink:href="#DejaVuSerif-28" transform="translate(819.189453 0.015625)"/>
      <use xlink:href="#DejaVuSerif-Italic-72" transform="translate(858.203125 0.015625)"/>
      <use xlink:href="#DejaVuSerif-36" transform="translate(906.005859 -15.55625)scale(0.7)"/>
      <use xlink:href="#DejaVuSerif-2212" transform="translate(972.102148 0.015625)"/>
      <use xlink:href="#DejaVuSerif-Italic-72" transform="translate(1074.856055 0.015625)"/>
      <use xlink:href="#DejaVuSerif-35" transform="translate(1122.658789 -15.55625)scale(0.7)"/>
      <use xlink:href="#DejaVuSerif-29" transform="translate(1169.790234 0.015625)"/>
     </g>
    </g>
    <g id="line2d_95">
     <path d="M 47.083053 75.172115 
L 57.083053 75.172115 
L 67.083053 75.172115 
" style="fill: none; stroke: #ff0000; stroke-width: 1.2; stroke-linecap: square"/>
    </g>
    <g id="text_23">
     <!-- CFE rotation rate $\omega$ -->
     <g transform="translate(75.083053 78.672115)scale(0.1 -0.1)">
      <defs>
       <path id="TimesNewRomanPSMT-46" d="M 1309 4006 
L 1309 2341 
L 2081 2341 
Q 2347 2341 2470 2458 
Q 2594 2575 2634 2922 
L 2750 2922 
L 2750 1488 
L 2634 1488 
Q 2631 1734 2570 1850 
Q 2509 1966 2401 2023 
Q 2294 2081 2081 2081 
L 1309 2081 
L 1309 750 
Q 1309 428 1350 325 
Q 1381 247 1481 191 
Q 1619 116 1769 116 
L 1922 116 
L 1922 0 
L 103 0 
L 103 116 
L 253 116 
Q 516 116 634 269 
Q 709 369 709 750 
L 709 3488 
Q 709 3809 669 3913 
Q 638 3991 541 4047 
Q 406 4122 253 4122 
L 103 4122 
L 103 4238 
L 3256 4238 
L 3297 3306 
L 3188 3306 
Q 3106 3603 2998 3742 
Q 2891 3881 2733 3943 
Q 2575 4006 2244 4006 
L 1309 4006 
z
" transform="scale(0.015625)"/>
       <path id="TimesNewRomanPSMT-45" d="M 1338 4006 
L 1338 2331 
L 2269 2331 
Q 2631 2331 2753 2441 
Q 2916 2584 2934 2947 
L 3050 2947 
L 3050 1472 
L 2934 1472 
Q 2891 1781 2847 1869 
Q 2791 1978 2662 2040 
Q 2534 2103 2269 2103 
L 1338 2103 
L 1338 706 
Q 1338 425 1363 364 
Q 1388 303 1450 267 
Q 1513 231 1688 231 
L 2406 231 
Q 2766 231 2928 281 
Q 3091 331 3241 478 
Q 3434 672 3638 1063 
L 3763 1063 
L 3397 0 
L 131 0 
L 131 116 
L 281 116 
Q 431 116 566 188 
Q 666 238 702 338 
Q 738 438 738 747 
L 738 3500 
Q 738 3903 656 3997 
Q 544 4122 281 4122 
L 131 4122 
L 131 4238 
L 3397 4238 
L 3444 3309 
L 3322 3309 
Q 3256 3644 3176 3769 
Q 3097 3894 2941 3959 
Q 2816 4006 2500 4006 
L 1338 4006 
z
" transform="scale(0.015625)"/>
       <path id="DejaVuSerif-Italic-3c9" d="M 2391 606 
Q 1881 0 1384 -22 
Q 1094 -22 844 91 
Q 659 175 463 409 
Q 297 609 222 947 
Q 181 1134 272 1594 
Q 409 2309 694 2716 
Q 950 3075 1528 3322 
L 1878 3322 
L 1844 3138 
Q 1506 2991 1238 2672 
Q 1088 2497 922 1644 
Q 806 1050 913 716 
Q 1044 300 1450 309 
Q 1663 313 1841 500 
Q 2144 822 2213 1172 
L 2431 2297 
L 3006 2297 
L 2788 1172 
Q 2719 822 2897 500 
Q 3003 313 3219 309 
Q 3619 300 3913 716 
Q 4150 1050 4266 1644 
Q 4431 2497 4350 2672 
Q 4200 2991 3925 3138 
L 3959 3322 
L 4309 3322 
Q 4791 3075 4906 2716 
Q 5034 2309 4894 1594 
Q 4806 1134 4691 947 
Q 4484 609 4244 409 
Q 3956 175 3738 91 
Q 3444 -22 3153 -22 
Q 2672 0 2391 606 
z
" transform="scale(0.015625)"/>
      </defs>
      <use xlink:href="#TimesNewRomanPSMT-43" transform="translate(0 0.5625)"/>
      <use xlink:href="#TimesNewRomanPSMT-46" transform="translate(66.699219 0.5625)"/>
      <use xlink:href="#TimesNewRomanPSMT-45" transform="translate(122.314453 0.5625)"/>
      <use xlink:href="#TimesNewRomanPSMT-20" transform="translate(183.398438 0.5625)"/>
      <use xlink:href="#TimesNewRomanPSMT-72" transform="translate(208.398438 0.5625)"/>
      <use xlink:href="#TimesNewRomanPSMT-6f" transform="translate(241.699219 0.5625)"/>
      <use xlink:href="#TimesNewRomanPSMT-74" transform="translate(291.699219 0.5625)"/>
      <use xlink:href="#TimesNewRomanPSMT-61" transform="translate(319.482422 0.5625)"/>
      <use xlink:href="#TimesNewRomanPSMT-74" transform="translate(363.867188 0.5625)"/>
      <use xlink:href="#TimesNewRomanPSMT-69" transform="translate(391.650391 0.5625)"/>
      <use xlink:href="#TimesNewRomanPSMT-6f" transform="translate(419.433594 0.5625)"/>
      <use xlink:href="#TimesNewRomanPSMT-6e" transform="translate(469.433594 0.5625)"/>
      <use xlink:href="#TimesNewRomanPSMT-20" transform="translate(519.433594 0.5625)"/>
      <use xlink:href="#TimesNewRomanPSMT-72" transform="translate(544.433594 0.5625)"/>
      <use xlink:href="#TimesNewRomanPSMT-61" transform="translate(577.734375 0.5625)"/>
      <use xlink:href="#TimesNewRomanPSMT-74" transform="translate(622.119141 0.5625)"/>
      <use xlink:href="#TimesNewRomanPSMT-65" transform="translate(649.902344 0.5625)"/>
      <use xlink:href="#TimesNewRomanPSMT-20" transform="translate(694.287109 0.5625)"/>
      <use xlink:href="#DejaVuSerif-Italic-3c9" transform="translate(719.287109 0.5625)"/>
     </g>
    </g>
    <g id="line2d_96">
     <path d="M 47.083053 86.311178 
L 57.083053 86.311178 
L 67.083053 86.311178 
" style="fill: none; stroke: #808080; stroke-width: 1.2; stroke-linecap: square"/>
    </g>
    <g id="text_24">
     <!-- turbine sp. speed $\nu_s$ -->
     <g transform="translate(75.083053 89.811178)scale(0.1 -0.1)">
      <defs>
       <path id="DejaVuSerif-Italic-3bd" d="M 1103 363 
Q 1516 513 1997 875 
Q 2291 1094 2691 1638 
Q 2950 1975 3034 2288 
Q 3116 2575 3025 2794 
Q 2906 3097 2691 3138 
L 2725 3322 
L 3075 3322 
Q 3400 3169 3584 2828 
Q 3728 2566 3666 2247 
Q 3622 2016 3494 1825 
Q 3400 1688 3116 1366 
Q 2738 950 2297 663 
Q 1494 138 1034 0 
L 456 0 
L 1041 2988 
L 491 2988 
L 553 3322 
L 1678 3322 
L 1103 363 
z
" transform="scale(0.015625)"/>
       <path id="DejaVuSerif-Italic-73" d="M 222 959 
L 553 959 
Q 541 869 541 788 
Q 541 219 1313 219 
Q 2088 219 2200 788 
Q 2209 844 2209 944 
Q 2209 1041 2103 1158 
Q 1997 1275 1550 1428 
L 1159 1569 
Q 759 1706 629 1882 
Q 500 2059 500 2263 
Q 500 2344 516 2438 
Q 606 2894 990 3153 
Q 1375 3413 1931 3413 
Q 2484 3413 3066 3144 
L 2925 2419 
L 2594 2419 
Q 2606 2491 2606 2553 
Q 2606 2781 2448 2942 
Q 2291 3103 1925 3103 
Q 1191 3103 1091 2591 
Q 1078 2538 1078 2444 
Q 1078 2347 1179 2237 
Q 1281 2128 1678 1997 
L 2106 1856 
Q 2550 1709 2716 1488 
Q 2831 1331 2831 1178 
Q 2831 522 2306 181 
Q 1894 -91 1262 -91 
Q 631 -91 72 184 
L 222 959 
z
" transform="scale(0.015625)"/>
      </defs>
      <use xlink:href="#TimesNewRomanPSMT-74" transform="translate(0 0.5625)"/>
      <use xlink:href="#TimesNewRomanPSMT-75" transform="translate(27.783203 0.5625)"/>
      <use xlink:href="#TimesNewRomanPSMT-72" transform="translate(77.783203 0.5625)"/>
      <use xlink:href="#TimesNewRomanPSMT-62" transform="translate(111.083984 0.5625)"/>
      <use xlink:href="#TimesNewRomanPSMT-69" transform="translate(161.083984 0.5625)"/>
      <use xlink:href="#TimesNewRomanPSMT-6e" transform="translate(188.867188 0.5625)"/>
      <use xlink:href="#TimesNewRomanPSMT-65" transform="translate(238.867188 0.5625)"/>
      <use xlink:href="#TimesNewRomanPSMT-20" transform="translate(283.251953 0.5625)"/>
      <use xlink:href="#TimesNewRomanPSMT-73" transform="translate(308.251953 0.5625)"/>
      <use xlink:href="#TimesNewRomanPSMT-70" transform="translate(347.167969 0.5625)"/>
      <use xlink:href="#TimesNewRomanPSMT-2e" transform="translate(397.167969 0.5625)"/>
      <use xlink:href="#TimesNewRomanPSMT-20" transform="translate(422.167969 0.5625)"/>
      <use xlink:href="#TimesNewRomanPSMT-73" transform="translate(447.167969 0.5625)"/>
      <use xlink:href="#TimesNewRomanPSMT-70" transform="translate(486.083984 0.5625)"/>
      <use xlink:href="#TimesNewRomanPSMT-65" transform="translate(536.083984 0.5625)"/>
      <use xlink:href="#TimesNewRomanPSMT-65" transform="translate(580.46875 0.5625)"/>
      <use xlink:href="#TimesNewRomanPSMT-64" transform="translate(624.853516 0.5625)"/>
      <use xlink:href="#TimesNewRomanPSMT-20" transform="translate(674.853516 0.5625)"/>
      <use xlink:href="#DejaVuSerif-Italic-3bd" transform="translate(699.853516 0.5625)"/>
      <use xlink:href="#DejaVuSerif-Italic-73" transform="translate(760.644531 -15.009375)scale(0.7)"/>
     </g>
    </g>
    <g id="line2d_97">
     <path d="M 47.083053 98.111177 
L 57.083053 98.111177 
L 67.083053 98.111177 
" style="fill: none; stroke: #ff69b4; stroke-width: 1.2; stroke-linecap: square"/>
    </g>
    <g id="text_25">
     <!-- CFE length $l$ -->
     <g transform="translate(75.083053 101.611177)scale(0.1 -0.1)">
      <defs>
       <path id="DejaVuSerif-Italic-6c" d="M 903 331 
L 1447 331 
L 1384 0 
L 266 0 
L 1147 4531 
L 594 4531 
L 656 4863 
L 1784 4863 
L 903 331 
z
" transform="scale(0.015625)"/>
      </defs>
      <use xlink:href="#TimesNewRomanPSMT-43" transform="translate(0 0.015625)"/>
      <use xlink:href="#TimesNewRomanPSMT-46" transform="translate(66.699219 0.015625)"/>
      <use xlink:href="#TimesNewRomanPSMT-45" transform="translate(122.314453 0.015625)"/>
      <use xlink:href="#TimesNewRomanPSMT-20" transform="translate(183.398438 0.015625)"/>
      <use xlink:href="#TimesNewRomanPSMT-6c" transform="translate(208.398438 0.015625)"/>
      <use xlink:href="#TimesNewRomanPSMT-65" transform="translate(236.181641 0.015625)"/>
      <use xlink:href="#TimesNewRomanPSMT-6e" transform="translate(280.566406 0.015625)"/>
      <use xlink:href="#TimesNewRomanPSMT-67" transform="translate(330.566406 0.015625)"/>
      <use xlink:href="#TimesNewRomanPSMT-74" transform="translate(380.566406 0.015625)"/>
      <use xlink:href="#TimesNewRomanPSMT-68" transform="translate(408.349609 0.015625)"/>
      <use xlink:href="#TimesNewRomanPSMT-20" transform="translate(458.349609 0.015625)"/>
      <use xlink:href="#DejaVuSerif-Italic-6c" transform="translate(483.349609 0.015625)"/>
     </g>
    </g>
   </g>
  </g>
 </g>
 <defs>
  <clipPath id="pba8c9078e0">
   <rect x="38.083053" y="6.472115" width="304.516707" height="220.54327"/>
  </clipPath>
 </defs>
</svg>
